{"glyphs":{"0":{"ha":951,"x_min":0,"x_max":0,"o":"m 476 -14 b 865 521 733 -14 865 203 b 476 1056 865 839 733 1056 b 85 521 215 1056 85 839 b 476 -14 85 203 215 -14 z m 476 182 b 307 521 349 182 307 318 b 476 859 307 724 349 859 b 642 521 601 859 642 724 b 476 182 642 318 601 182 z "},"1":{"ha":580,"x_min":0,"x_max":0,"o":"m 201 0 l 424 0 l 424 1042 l 43 1042 l 43 845 l 201 845 z "},"2":{"ha":795,"x_min":0,"x_max":0,"o":"m 378 196 l 542 399 b 720 760 679 571 720 639 b 401 1057 720 932 582 1057 b 63 727 212 1057 45 922 l 278 727 b 391 859 267 809 321 859 b 505 740 443 859 505 833 b 384 523 505 693 493 661 l -24 0 l 740 0 l 740 196 z "},"3":{"ha":854,"x_min":0,"x_max":0,"o":"m 443 623 l 776 1042 l 71 1042 l 71 845 l 399 845 l 108 464 l 418 464 b 549 332 495 464 549 411 b 415 194 549 253 497 194 b 292 292 349 194 292 236 l 71 288 b 415 -14 71 120 226 -14 b 767 325 615 -14 767 137 b 443 623 767 521 625 625 z "},"4":{"ha":891,"x_min":0,"x_max":0,"o":"m 819 417 l 734 417 l 734 1042 l 453 1042 l 19 219 l 512 219 l 512 0 l 734 0 l 734 219 l 819 219 z m 299 417 l 512 839 l 512 417 z "},"5":{"ha":884,"x_min":0,"x_max":0,"o":"m 488 705 b 297 634 406 705 345 677 l 314 842 l 743 842 l 743 1038 l 139 1038 l 94 542 l 269 436 b 432 509 309 479 375 509 b 590 349 523 509 590 439 b 408 189 590 257 517 189 b 116 330 314 189 208 214 l 76 330 l 61 122 b 420 -14 137 43 288 -14 b 813 358 649 -14 813 142 b 488 705 813 556 681 705 z "},"6":{"ha":922,"x_min":0,"x_max":0,"o":"m 526 715 b 493 717 516 717 503 717 l 741 1042 l 488 1042 l 155 582 b 73 352 109 514 73 438 b 462 -14 73 146 247 -14 b 851 352 672 -12 849 144 b 526 715 851 538 705 691 z m 462 177 b 292 351 358 175 290 253 b 462 530 292 451 358 528 b 634 351 564 530 634 451 b 462 177 635 253 564 177 z "},"7":{"ha":786,"x_min":0,"x_max":0,"o":"m 47 1042 l 47 845 l 523 845 l 57 0 l 300 0 l 766 878 l 766 1042 z "},"8":{"ha":844,"x_min":0,"x_max":0,"o":"m 641 580 b 727 778 694 628 727 698 b 422 1056 727 936 599 1056 b 115 778 243 1056 115 936 b 203 580 115 698 148 628 b 52 316 109 524 52 431 b 422 -14 52 128 208 -14 b 792 316 635 -14 792 128 b 641 580 792 431 734 524 z m 302 759 b 422 878 302 826 354 878 b 542 759 490 878 542 826 b 422 637 542 689 490 637 b 302 759 354 637 302 689 z m 422 181 b 276 333 339 181 276 248 b 422 479 276 418 339 479 b 568 333 505 479 568 418 b 422 181 568 248 505 181 z "},"9":{"ha":922,"x_min":0,"x_max":0,"o":"m 462 1056 b 73 689 252 1054 73 898 b 398 326 73 503 217 351 b 434 325 410 325 422 325 l 182 0 l 436 0 l 769 460 b 851 689 814 528 851 604 b 462 1056 851 896 675 1056 z m 462 512 b 288 691 358 514 290 590 b 462 865 288 788 358 865 b 632 691 564 866 632 788 b 462 512 634 590 566 512 z "},"A":{"ha":962,"x_min":0,"x_max":0,"o":"m 740 0 l 984 0 l 609 1042 l 352 1042 l -23 0 l 222 0 l 286 196 l 675 196 z m 347 387 l 481 800 l 615 387 z "},"Á":{"ha":962,"x_min":0,"x_max":0,"o":"m 760 1389 l 550 1389 l 398 1130 l 543 1130 z m 740 0 l 984 0 l 609 1042 l 352 1042 l -23 0 l 222 0 l 286 196 l 675 196 z m 347 387 l 481 800 l 615 387 z "},"Ă":{"ha":962,"x_min":0,"x_max":0,"o":"m 483 1118 b 736 1363 634 1118 736 1198 l 611 1363 b 483 1243 611 1302 563 1243 b 354 1363 405 1243 354 1302 l 229 1363 b 483 1118 229 1198 333 1118 z m 740 0 l 984 0 l 609 1042 l 352 1042 l -23 0 l 222 0 l 286 196 l 675 196 z m 347 387 l 481 800 l 615 387 z "},"Ǎ":{"ha":962,"x_min":0,"x_max":0,"o":"m 549 1130 l 720 1389 l 582 1389 l 483 1253 l 384 1389 l 245 1389 l 415 1130 z m 740 0 l 984 0 l 609 1042 l 352 1042 l -23 0 l 222 0 l 286 196 l 675 196 z m 347 387 l 481 800 l 615 387 z "},"Â":{"ha":962,"x_min":0,"x_max":0,"o":"m 483 1266 l 582 1130 l 720 1130 l 549 1389 l 415 1389 l 245 1130 l 384 1130 z m 740 0 l 984 0 l 609 1042 l 352 1042 l -23 0 l 222 0 l 286 196 l 675 196 z m 347 387 l 481 800 l 615 387 z "},"Ä":{"ha":962,"x_min":0,"x_max":0,"o":"m 337 1163 b 443 1267 394 1163 443 1212 b 337 1372 443 1326 394 1372 b 233 1267 281 1372 233 1326 b 337 1163 233 1212 281 1163 z m 628 1163 b 733 1267 688 1163 733 1212 b 628 1372 733 1326 688 1372 b 524 1267 573 1372 524 1326 b 628 1163 524 1212 573 1163 z m 740 0 l 984 0 l 609 1042 l 352 1042 l -23 0 l 222 0 l 286 196 l 675 196 z m 347 387 l 481 800 l 615 387 z "},"À":{"ha":962,"x_min":0,"x_max":0,"o":"m 568 1130 l 415 1389 l 205 1389 l 422 1130 z m 740 0 l 984 0 l 609 1042 l 352 1042 l -23 0 l 222 0 l 286 196 l 675 196 z m 347 387 l 481 800 l 615 387 z "},"Ā":{"ha":962,"x_min":0,"x_max":0,"o":"m 693 1292 l 274 1292 l 274 1153 l 693 1153 z m 740 0 l 984 0 l 609 1042 l 352 1042 l -23 0 l 222 0 l 286 196 l 675 196 z m 347 387 l 481 800 l 615 387 z "},"Ą":{"ha":962,"x_min":0,"x_max":0,"o":"m 997 -177 b 882 -252 970 -224 927 -252 b 806 -165 835 -252 806 -222 b 984 0 806 -85 878 -50 l 609 1042 l 352 1042 l -23 0 l 222 0 l 286 196 l 675 196 l 740 0 l 811 0 b 670 -184 731 -40 670 -97 b 845 -359 670 -276 733 -351 b 1066 -274 925 -365 1009 -333 z m 347 387 l 481 800 l 615 387 z "},"Å":{"ha":962,"x_min":0,"x_max":0,"o":"m 740 0 l 984 0 l 620 1012 b 660 1123 644 1043 660 1082 b 493 1290 660 1215 585 1290 b 323 1123 399 1290 323 1215 b 349 1033 323 1090 333 1059 l -23 0 l 222 0 l 286 196 l 675 196 z m 493 1203 b 571 1123 536 1203 571 1165 b 493 1043 571 1075 536 1043 b 417 1123 448 1043 417 1075 b 493 1203 417 1165 448 1203 z m 347 387 l 481 800 l 615 387 z "},"Ã":{"ha":962,"x_min":0,"x_max":0,"o":"m 398 1229 b 429 1208 410 1229 418 1224 b 569 1127 467 1153 512 1127 b 738 1347 682 1127 738 1222 l 606 1347 b 566 1253 606 1290 597 1253 b 536 1276 552 1253 543 1262 b 392 1358 505 1319 458 1358 b 226 1135 288 1358 226 1266 l 358 1135 b 398 1229 358 1189 368 1229 z m 740 0 l 984 0 l 609 1042 l 352 1042 l -23 0 l 222 0 l 286 196 l 675 196 z m 347 387 l 481 800 l 615 387 z "},"Æ":{"ha":1323,"x_min":0,"x_max":0,"o":"m 1252 845 l 1252 1042 l 394 1042 l -23 0 l 233 0 l 314 217 l 627 217 l 627 0 l 1252 0 l 1252 196 l 849 196 l 849 432 l 1193 432 l 1193 609 l 849 609 l 849 845 z m 380 394 l 552 849 l 627 849 l 627 394 z "},"B":{"ha":943,"x_min":0,"x_max":0,"o":"m 729 528 b 858 752 807 569 858 642 b 543 1042 858 936 719 1042 l 102 1042 l 102 0 l 583 0 b 892 285 757 0 892 101 b 729 528 892 411 826 490 z m 628 727 b 516 615 628 667 578 615 l 332 615 l 332 839 l 516 839 b 628 727 578 839 628 790 z m 550 203 l 332 203 l 332 427 l 550 427 b 663 314 615 427 663 375 b 550 203 663 252 615 203 z "},"C":{"ha":1118,"x_min":0,"x_max":0,"o":"m 599 -14 b 1073 273 806 -14 984 102 l 875 375 b 599 210 825 276 722 210 b 290 521 424 210 290 345 b 599 832 290 696 424 832 b 875 667 722 832 825 766 l 1073 769 b 599 1056 984 939 806 1056 b 64 521 304 1056 64 816 b 599 -14 64 226 304 -14 z "},"Ć":{"ha":1118,"x_min":0,"x_max":0,"o":"m 514 1130 l 660 1130 l 877 1389 l 667 1389 z m 599 -14 b 1073 273 806 -14 984 102 l 875 375 b 599 210 825 276 722 210 b 290 521 424 210 290 345 b 599 832 290 696 424 832 b 875 667 722 832 825 766 l 1073 769 b 599 1056 984 939 806 1056 b 64 521 304 1056 64 816 b 599 -14 64 226 304 -14 z "},"Č":{"ha":1118,"x_min":0,"x_max":0,"o":"m 531 1130 l 665 1130 l 837 1389 l 698 1389 l 599 1253 l 500 1389 l 361 1389 z m 599 -14 b 1073 273 806 -14 984 102 l 875 375 b 599 210 825 276 722 210 b 290 521 424 210 290 345 b 599 832 290 696 424 832 b 875 667 722 832 825 766 l 1073 769 b 599 1056 984 939 806 1056 b 64 521 304 1056 64 816 b 599 -14 64 226 304 -14 z "},"Ç":{"ha":1118,"x_min":0,"x_max":0,"o":"m 599 210 b 290 521 424 210 290 345 b 599 832 290 696 424 832 b 875 667 722 832 825 766 l 1073 769 b 599 1056 984 939 806 1056 b 64 521 304 1056 64 816 b 543 -10 64 245 274 17 l 477 -128 l 556 -174 b 663 -207 615 -142 663 -158 b 609 -260 663 -236 639 -260 b 543 -222 585 -260 556 -243 l 446 -253 b 609 -361 467 -312 538 -361 b 764 -207 696 -361 764 -293 b 604 -80 764 -122 693 -64 l 644 -12 b 1073 273 832 3 991 115 l 875 375 b 599 210 825 276 722 210 z "},"Ċ":{"ha":1118,"x_min":0,"x_max":0,"o":"m 599 1130 b 722 1252 667 1130 722 1186 b 599 1373 722 1319 667 1373 b 477 1252 533 1373 477 1319 b 599 1130 477 1186 533 1130 z m 599 -14 b 1073 273 806 -14 984 102 l 875 375 b 599 210 825 276 722 210 b 290 521 424 210 290 345 b 599 832 290 696 424 832 b 875 667 722 832 825 766 l 1073 769 b 599 1056 984 939 806 1056 b 64 521 304 1056 64 816 b 599 -14 64 226 304 -14 z "},"D":{"ha":1031,"x_min":0,"x_max":0,"o":"m 102 0 l 446 0 b 967 521 733 0 967 233 b 446 1042 967 809 733 1042 l 102 1042 z m 332 203 l 332 839 l 444 839 b 738 521 609 839 738 701 b 444 203 738 340 609 203 z "},"Ð":{"ha":1031,"x_min":0,"x_max":0,"o":"m 446 1042 l 102 1042 l 102 580 l 5 580 l 5 462 l 102 462 l 102 0 l 446 0 b 967 521 733 0 967 233 b 446 1042 967 809 733 1042 z m 444 203 l 332 203 l 332 462 l 491 462 l 491 580 l 332 580 l 332 839 l 444 839 b 738 521 609 839 738 701 b 444 203 738 340 609 203 z "},"Ď":{"ha":1031,"x_min":0,"x_max":0,"o":"m 377 1130 l 510 1130 l 682 1389 l 543 1389 l 444 1253 l 345 1389 l 207 1389 z m 102 0 l 446 0 b 967 521 733 0 967 233 b 446 1042 967 809 733 1042 l 102 1042 z m 332 203 l 332 839 l 444 839 b 738 521 609 839 738 701 b 444 203 738 340 609 203 z "},"Đ":{"ha":1031,"x_min":0,"x_max":0,"o":"m 446 1042 l 102 1042 l 102 580 l 5 580 l 5 462 l 102 462 l 102 0 l 446 0 b 967 521 733 0 967 233 b 446 1042 967 809 733 1042 z m 444 203 l 332 203 l 332 462 l 491 462 l 491 580 l 332 580 l 332 839 l 444 839 b 738 521 609 839 738 701 b 444 203 738 340 609 203 z "},"E":{"ha":809,"x_min":0,"x_max":0,"o":"m 738 840 l 738 1042 l 111 1042 l 111 0 l 738 0 l 738 201 l 340 201 l 340 420 l 681 420 l 681 622 l 340 622 l 340 840 z "},"É":{"ha":809,"x_min":0,"x_max":0,"o":"m 703 1389 l 493 1389 l 340 1130 l 486 1130 z m 738 840 l 738 1042 l 111 1042 l 111 0 l 738 0 l 738 201 l 340 201 l 340 420 l 681 420 l 681 622 l 340 622 l 340 840 z "},"Ě":{"ha":809,"x_min":0,"x_max":0,"o":"m 491 1130 l 663 1389 l 524 1389 l 425 1253 l 326 1389 l 188 1389 l 358 1130 z m 738 840 l 738 1042 l 111 1042 l 111 0 l 738 0 l 738 201 l 340 201 l 340 420 l 681 420 l 681 622 l 340 622 l 340 840 z "},"Ê":{"ha":809,"x_min":0,"x_max":0,"o":"m 425 1266 l 524 1130 l 663 1130 l 491 1389 l 358 1389 l 188 1130 l 326 1130 z m 738 840 l 738 1042 l 111 1042 l 111 0 l 738 0 l 738 201 l 340 201 l 340 420 l 681 420 l 681 622 l 340 622 l 340 840 z "},"Ë":{"ha":809,"x_min":0,"x_max":0,"o":"m 280 1163 b 385 1267 337 1163 385 1212 b 280 1372 385 1326 337 1372 b 175 1267 224 1372 175 1326 b 280 1163 175 1212 224 1163 z m 571 1163 b 675 1267 630 1163 675 1212 b 571 1372 675 1326 630 1372 b 467 1267 516 1372 467 1326 b 571 1163 467 1212 516 1163 z m 738 840 l 738 1042 l 111 1042 l 111 0 l 738 0 l 738 201 l 340 201 l 340 420 l 681 420 l 681 622 l 340 622 l 340 840 z "},"Ė":{"ha":809,"x_min":0,"x_max":0,"o":"m 425 1130 b 549 1252 493 1130 549 1186 b 425 1373 549 1319 493 1373 b 304 1252 359 1373 304 1319 b 425 1130 304 1186 359 1130 z m 738 840 l 738 1042 l 111 1042 l 111 0 l 738 0 l 738 201 l 340 201 l 340 420 l 681 420 l 681 622 l 340 622 l 340 840 z "},"È":{"ha":809,"x_min":0,"x_max":0,"o":"m 510 1130 l 358 1389 l 148 1389 l 365 1130 z m 738 840 l 738 1042 l 111 1042 l 111 0 l 738 0 l 738 201 l 340 201 l 340 420 l 681 420 l 681 622 l 340 622 l 340 840 z "},"Ē":{"ha":809,"x_min":0,"x_max":0,"o":"m 635 1292 l 217 1292 l 217 1153 l 635 1153 z m 738 840 l 738 1042 l 111 1042 l 111 0 l 738 0 l 738 201 l 340 201 l 340 420 l 681 420 l 681 622 l 340 622 l 340 840 z "},"Ę":{"ha":809,"x_min":0,"x_max":0,"o":"m 750 -177 b 635 -252 724 -224 681 -252 b 559 -165 589 -252 559 -222 b 738 0 559 -85 632 -50 l 738 201 l 340 201 l 340 420 l 681 420 l 681 622 l 340 622 l 340 840 l 738 840 l 738 1042 l 111 1042 l 111 0 l 564 0 b 424 -184 484 -40 424 -97 b 599 -359 424 -276 486 -351 b 819 -274 679 -365 762 -333 z "},"F":{"ha":755,"x_min":0,"x_max":0,"o":"m 738 840 l 738 1042 l 111 1042 l 111 0 l 340 0 l 340 420 l 681 420 l 681 622 l 340 622 l 340 840 z "},"G":{"ha":1201,"x_min":0,"x_max":0,"o":"m 599 571 l 599 392 l 885 392 b 601 210 837 283 729 210 b 290 521 425 210 290 345 b 601 832 290 696 425 832 b 877 667 724 832 825 766 l 1075 769 b 601 1056 984 939 806 1056 b 66 521 304 1056 66 816 b 601 -14 66 226 304 -14 b 1135 521 896 -14 1135 226 l 1135 571 z "},"Ğ":{"ha":1201,"x_min":0,"x_max":0,"o":"m 601 1118 b 854 1363 752 1118 854 1198 l 729 1363 b 601 1243 729 1302 681 1243 b 472 1363 523 1243 472 1302 l 347 1363 b 601 1118 347 1198 451 1118 z m 599 571 l 599 392 l 885 392 b 601 210 837 283 729 210 b 290 521 425 210 290 345 b 601 832 290 696 425 832 b 877 667 724 832 825 766 l 1075 769 b 601 1056 984 939 806 1056 b 66 521 304 1056 66 816 b 601 -14 66 226 304 -14 b 1135 521 896 -14 1135 226 l 1135 571 z "},"Ģ":{"ha":1201,"x_min":0,"x_max":0,"o":"m 599 571 l 599 392 l 885 392 b 601 210 837 283 729 210 b 290 521 425 210 290 345 b 601 832 290 696 425 832 b 877 667 724 832 825 766 l 1075 769 b 601 1056 984 939 806 1056 b 66 521 304 1056 66 816 b 601 -14 66 226 304 -14 b 1135 521 896 -14 1135 226 l 1135 571 z m 408 -347 l 514 -347 l 696 -83 l 505 -83 z "},"Ġ":{"ha":1201,"x_min":0,"x_max":0,"o":"m 601 1130 b 724 1252 668 1130 724 1186 b 601 1373 724 1319 668 1373 b 479 1252 535 1373 479 1319 b 601 1130 479 1186 535 1130 z m 599 571 l 599 392 l 885 392 b 601 210 837 283 729 210 b 290 521 425 210 290 345 b 601 832 290 696 425 832 b 877 667 724 832 825 766 l 1075 769 b 601 1056 984 939 806 1056 b 66 521 304 1056 66 816 b 601 -14 66 226 304 -14 b 1135 521 896 -14 1135 226 l 1135 571 z "},"H":{"ha":1087,"x_min":0,"x_max":0,"o":"m 755 1042 l 755 623 l 332 623 l 332 1042 l 102 1042 l 102 0 l 332 0 l 332 420 l 755 420 l 755 0 l 983 0 l 983 1042 z "},"Ħ":{"ha":1087,"x_min":0,"x_max":0,"o":"m 1064 866 l 983 866 l 983 1042 l 755 1042 l 755 866 l 332 866 l 332 1042 l 102 1042 l 102 866 l 24 866 l 24 776 l 102 776 l 102 0 l 332 0 l 332 420 l 755 420 l 755 0 l 983 0 l 983 776 l 1064 776 z m 755 623 l 332 623 l 332 776 l 755 776 z "},"I":{"ha":450,"x_min":0,"x_max":0,"o":"m 111 0 l 340 0 l 340 1042 l 111 1042 z "},"Í":{"ha":450,"x_min":0,"x_max":0,"o":"m 139 1130 l 285 1130 l 502 1389 l 292 1389 z m 111 0 l 340 0 l 340 1042 l 111 1042 z "},"Ǐ":{"ha":450,"x_min":0,"x_max":0,"o":"m 156 1130 l 290 1130 l 462 1389 l 323 1389 l 224 1253 l 125 1389 l -14 1389 z m 111 0 l 340 0 l 340 1042 l 111 1042 z "},"Î":{"ha":450,"x_min":0,"x_max":0,"o":"m 125 1130 l 224 1266 l 323 1130 l 462 1130 l 290 1389 l 156 1389 l -14 1130 z m 111 0 l 340 0 l 340 1042 l 111 1042 z "},"Ï":{"ha":450,"x_min":0,"x_max":0,"o":"m 78 1163 b 184 1267 135 1163 184 1212 b 78 1372 184 1326 135 1372 b -26 1267 23 1372 -26 1326 b 78 1163 -26 1212 23 1163 z m 370 1163 b 474 1267 429 1163 474 1212 b 370 1372 474 1326 429 1372 b 266 1267 314 1372 266 1326 b 370 1163 266 1212 314 1163 z m 111 0 l 340 0 l 340 1042 l 111 1042 z "},"İ":{"ha":450,"x_min":0,"x_max":0,"o":"m 224 1130 b 347 1252 292 1130 347 1186 b 224 1373 347 1319 292 1373 b 102 1252 158 1373 102 1319 b 224 1130 102 1186 158 1130 z m 111 0 l 340 0 l 340 1042 l 111 1042 z "},"Ì":{"ha":450,"x_min":0,"x_max":0,"o":"m 309 1130 l 156 1389 l -54 1389 l 163 1130 z m 111 0 l 340 0 l 340 1042 l 111 1042 z "},"Ī":{"ha":450,"x_min":0,"x_max":0,"o":"m 16 1153 l 434 1153 l 434 1292 l 16 1292 z m 111 0 l 340 0 l 340 1042 l 111 1042 z "},"Į":{"ha":450,"x_min":0,"x_max":0,"o":"m 352 -177 b 238 -252 326 -224 283 -252 b 161 -165 191 -252 161 -222 b 340 0 161 -85 234 -50 l 340 1042 l 111 1042 l 111 0 l 167 0 b 26 -184 87 -40 26 -97 b 201 -359 26 -276 89 -351 b 422 -274 281 -365 365 -333 z "},"J":{"ha":790,"x_min":0,"x_max":0,"o":"m 703 1042 l 132 1042 l 132 839 l 474 839 l 474 297 b 372 188 474 234 429 188 b 271 280 319 188 280 226 l 45 214 b 372 -14 68 73 181 -14 b 703 267 585 -14 703 95 z "},"K":{"ha":1023,"x_min":0,"x_max":0,"o":"m 753 0 l 1059 0 l 557 578 l 1007 1042 l 712 1042 l 372 674 l 332 674 l 332 1042 l 102 1042 l 102 0 l 332 0 l 332 476 l 365 476 z "},"Ķ":{"ha":1023,"x_min":0,"x_max":0,"o":"m 557 578 l 1007 1042 l 712 1042 l 372 674 l 332 674 l 332 1042 l 102 1042 l 102 0 l 332 0 l 332 476 l 365 476 l 753 0 l 1059 0 z m 328 -347 l 434 -347 l 616 -83 l 425 -83 z "},"L":{"ha":681,"x_min":0,"x_max":0,"o":"m 332 203 l 332 1042 l 102 1042 l 102 0 l 677 0 l 677 203 z "},"Ĺ":{"ha":681,"x_min":0,"x_max":0,"o":"m 495 1389 l 285 1389 l 132 1130 l 278 1130 z m 332 203 l 332 1042 l 102 1042 l 102 0 l 677 0 l 677 203 z "},"Ľ":{"ha":748,"x_min":0,"x_max":0,"o":"m 332 1042 l 102 1042 l 102 0 l 677 0 l 677 203 l 332 203 z m 773 1042 l 589 1042 l 470 622 l 585 622 z "},"Ļ":{"ha":681,"x_min":0,"x_max":0,"o":"m 332 203 l 332 1042 l 102 1042 l 102 0 l 677 0 l 677 203 z m 198 -347 l 304 -347 l 486 -83 l 295 -83 z "},"Ł":{"ha":681,"x_min":0,"x_max":0,"o":"m 332 203 l 332 556 l 509 741 l 415 819 l 332 733 l 332 1042 l 102 1042 l 102 491 l -76 304 l 14 222 l 102 316 l 102 0 l 677 0 l 677 203 z "},"M":{"ha":1359,"x_min":0,"x_max":0,"o":"m 1010 1042 l 679 321 l 351 1042 l 102 1042 l 102 0 l 332 0 l 332 622 l 613 0 l 745 0 l 1028 620 l 1028 0 l 1257 0 l 1257 1042 z "},"N":{"ha":1182,"x_min":0,"x_max":0,"o":"m 851 1042 l 851 352 l 339 1042 l 102 1042 l 102 0 l 332 0 l 332 691 l 842 0 l 1078 0 l 1078 1042 z "},"Ń":{"ha":1182,"x_min":0,"x_max":0,"o":"m 873 1389 l 663 1389 l 510 1130 l 656 1130 z m 851 1042 l 851 352 l 339 1042 l 102 1042 l 102 0 l 332 0 l 332 691 l 842 0 l 1078 0 l 1078 1042 z "},"Ň":{"ha":1182,"x_min":0,"x_max":0,"o":"m 661 1130 l 833 1389 l 694 1389 l 595 1253 l 497 1389 l 358 1389 l 528 1130 z m 851 1042 l 851 352 l 339 1042 l 102 1042 l 102 0 l 332 0 l 332 691 l 842 0 l 1078 0 l 1078 1042 z "},"Ņ":{"ha":1182,"x_min":0,"x_max":0,"o":"m 851 1042 l 851 352 l 339 1042 l 102 1042 l 102 0 l 332 0 l 332 691 l 842 0 l 1078 0 l 1078 1042 z m 394 -347 l 500 -347 l 682 -83 l 491 -83 z "},"Ŋ":{"ha":1182,"x_min":0,"x_max":0,"o":"m 851 1042 l 851 352 l 339 1042 l 102 1042 l 102 0 l 332 0 l 332 691 l 842 0 l 842 -102 b 738 -231 842 -222 797 -229 l 738 -380 b 1078 -113 931 -380 1078 -316 l 1078 1042 z "},"Ñ":{"ha":1182,"x_min":0,"x_max":0,"o":"m 510 1229 b 542 1208 523 1229 531 1224 b 682 1127 580 1153 625 1127 b 851 1347 795 1127 851 1222 l 719 1347 b 679 1253 719 1290 710 1253 b 649 1276 665 1253 656 1262 b 505 1358 618 1319 571 1358 b 339 1135 401 1358 339 1266 l 470 1135 b 510 1229 470 1189 481 1229 z m 851 1042 l 851 352 l 339 1042 l 102 1042 l 102 0 l 332 0 l 332 691 l 842 0 l 1078 0 l 1078 1042 z "},"O":{"ha":1200,"x_min":0,"x_max":0,"o":"m 599 -14 b 1134 521 896 -14 1134 226 b 599 1056 1134 816 896 1056 b 64 521 304 1056 64 816 b 599 -14 64 226 304 -14 z m 599 210 b 290 521 424 210 290 345 b 599 832 290 696 424 832 b 910 521 776 832 910 696 b 599 210 910 345 776 210 z "},"Ó":{"ha":1200,"x_min":0,"x_max":0,"o":"m 514 1130 l 660 1130 l 877 1389 l 667 1389 z m 599 -14 b 1134 521 896 -14 1134 226 b 599 1056 1134 816 896 1056 b 64 521 304 1056 64 816 b 599 -14 64 226 304 -14 z m 599 210 b 290 521 424 210 290 345 b 599 832 290 696 424 832 b 910 521 776 832 910 696 b 599 210 910 345 776 210 z "},"Ǒ":{"ha":1200,"x_min":0,"x_max":0,"o":"m 531 1130 l 665 1130 l 837 1389 l 698 1389 l 599 1253 l 500 1389 l 361 1389 z m 599 -14 b 1134 521 896 -14 1134 226 b 599 1056 1134 816 896 1056 b 64 521 304 1056 64 816 b 599 -14 64 226 304 -14 z m 599 210 b 290 521 424 210 290 345 b 599 832 290 696 424 832 b 910 521 776 832 910 696 b 599 210 910 345 776 210 z "},"Ô":{"ha":1200,"x_min":0,"x_max":0,"o":"m 500 1130 l 599 1266 l 698 1130 l 837 1130 l 665 1389 l 531 1389 l 361 1130 z m 599 -14 b 1134 521 896 -14 1134 226 b 599 1056 1134 816 896 1056 b 64 521 304 1056 64 816 b 599 -14 64 226 304 -14 z m 599 210 b 290 521 424 210 290 345 b 599 832 290 696 424 832 b 910 521 776 832 910 696 b 599 210 910 345 776 210 z "},"Ö":{"ha":1200,"x_min":0,"x_max":0,"o":"m 453 1163 b 559 1267 510 1163 559 1212 b 453 1372 559 1326 510 1372 b 349 1267 398 1372 349 1326 b 453 1163 349 1212 398 1163 z m 745 1163 b 849 1267 804 1163 849 1212 b 745 1372 849 1326 804 1372 b 641 1267 689 1372 641 1326 b 745 1163 641 1212 689 1163 z m 599 -14 b 1134 521 896 -14 1134 226 b 599 1056 1134 816 896 1056 b 64 521 304 1056 64 816 b 599 -14 64 226 304 -14 z m 599 210 b 290 521 424 210 290 345 b 599 832 290 696 424 832 b 910 521 776 832 910 696 b 599 210 910 345 776 210 z "},"Ò":{"ha":1200,"x_min":0,"x_max":0,"o":"m 684 1130 l 531 1389 l 321 1389 l 538 1130 z m 599 -14 b 1134 521 896 -14 1134 226 b 599 1056 1134 816 896 1056 b 64 521 304 1056 64 816 b 599 -14 64 226 304 -14 z m 599 210 b 290 521 424 210 290 345 b 599 832 290 696 424 832 b 910 521 776 832 910 696 b 599 210 910 345 776 210 z "},"Ő":{"ha":1200,"x_min":0,"x_max":0,"o":"m 382 1130 l 526 1130 l 741 1389 l 533 1389 z m 661 1130 l 806 1130 l 1021 1389 l 813 1389 z m 599 -14 b 1134 521 896 -14 1134 226 b 599 1056 1134 816 896 1056 b 64 521 304 1056 64 816 b 599 -14 64 226 304 -14 z m 599 210 b 290 521 424 210 290 345 b 599 832 290 696 424 832 b 910 521 776 832 910 696 b 599 210 910 345 776 210 z "},"Ō":{"ha":1200,"x_min":0,"x_max":0,"o":"m 391 1153 l 809 1153 l 809 1292 l 391 1292 z m 599 -14 b 1134 521 896 -14 1134 226 b 599 1056 1134 816 896 1056 b 64 521 304 1056 64 816 b 599 -14 64 226 304 -14 z m 599 210 b 290 521 424 210 290 345 b 599 832 290 696 424 832 b 910 521 776 832 910 696 b 599 210 910 345 776 210 z "},"Ø":{"ha":1200,"x_min":0,"x_max":0,"o":"m 965 911 l 1059 1045 l 924 1127 l 835 1000 b 599 1056 764 1036 684 1056 b 64 521 304 1056 64 816 b 231 132 64 368 128 229 l 137 -3 l 273 -83 l 359 42 b 599 -14 432 7 514 -14 b 1134 521 896 -14 1134 226 b 965 911 1134 675 1069 813 z m 290 521 b 599 832 290 696 424 832 b 707 814 637 832 674 825 l 361 319 b 290 521 316 373 290 443 z m 599 210 b 490 229 561 210 524 217 l 837 726 b 910 521 882 672 910 601 b 599 210 910 345 776 210 z "},"Õ":{"ha":1200,"x_min":0,"x_max":0,"o":"m 686 1127 b 854 1347 799 1127 854 1222 l 722 1347 b 682 1253 722 1290 714 1253 b 653 1276 668 1253 660 1262 b 509 1358 622 1319 575 1358 b 342 1135 405 1358 342 1266 l 474 1135 b 514 1229 474 1189 484 1229 b 545 1208 526 1229 535 1224 b 686 1127 583 1153 628 1127 z m 599 -14 b 1134 521 896 -14 1134 226 b 599 1056 1134 816 896 1056 b 64 521 304 1056 64 816 b 599 -14 64 226 304 -14 z m 599 210 b 290 521 424 210 290 345 b 599 832 290 696 424 832 b 910 521 776 832 910 696 b 599 210 910 345 776 210 z "},"Œ":{"ha":1434,"x_min":0,"x_max":0,"o":"m 1363 845 l 1363 1042 l 774 1042 l 774 1028 b 599 1056 719 1045 661 1056 b 64 521 304 1056 64 816 b 599 -14 64 226 304 -14 b 774 14 661 -14 719 -3 l 774 0 l 1363 0 l 1363 196 l 981 196 l 981 422 l 1304 422 l 1304 620 l 981 620 l 981 845 z m 599 207 b 286 521 424 207 286 345 b 599 835 286 696 424 835 b 774 781 665 835 726 814 l 774 260 b 599 207 726 227 665 207 z "},"P":{"ha":863,"x_min":0,"x_max":0,"o":"m 545 1042 l 102 1042 l 102 0 l 332 0 l 332 422 l 545 422 b 856 727 720 422 856 552 b 545 1042 856 901 720 1042 z m 509 611 l 332 611 l 332 840 l 509 840 b 637 726 582 840 637 793 b 509 611 637 656 582 611 z "},"Þ":{"ha":894,"x_min":0,"x_max":0,"o":"m 552 889 l 333 889 l 333 1042 l 113 1042 l 113 0 l 333 0 l 333 271 l 552 271 b 861 573 724 271 861 405 b 552 889 861 750 724 889 z m 543 467 l 333 467 l 333 693 l 543 693 b 658 580 608 693 658 646 b 543 467 658 517 608 467 z "},"Q":{"ha":1201,"x_min":0,"x_max":0,"o":"m 1174 165 l 1069 165 l 939 108 b 1134 521 1057 205 1134 354 b 599 1056 1134 816 896 1056 b 64 521 304 1056 64 816 b 599 -14 64 226 304 -14 b 720 0 641 -14 682 -9 l 1174 0 z m 290 521 b 599 832 290 696 424 832 b 910 521 776 832 910 696 b 599 210 910 345 776 210 b 290 521 424 210 290 345 z "},"R":{"ha":929,"x_min":0,"x_max":0,"o":"m 646 429 b 856 722 769 465 856 580 b 545 1042 856 899 724 1042 l 102 1042 l 102 0 l 332 0 l 332 403 l 424 403 l 681 0 l 938 0 z m 510 592 l 332 592 l 332 839 l 510 839 b 637 715 583 839 637 786 b 510 592 637 642 583 592 z "},"Ŕ":{"ha":929,"x_min":0,"x_max":0,"o":"m 750 1389 l 540 1389 l 387 1130 l 533 1130 z m 646 429 b 856 722 769 465 856 580 b 545 1042 856 899 724 1042 l 102 1042 l 102 0 l 332 0 l 332 403 l 424 403 l 681 0 l 938 0 z m 510 592 l 332 592 l 332 839 l 510 839 b 637 715 583 839 637 786 b 510 592 637 642 583 592 z "},"Ř":{"ha":929,"x_min":0,"x_max":0,"o":"m 538 1130 l 710 1389 l 571 1389 l 472 1253 l 373 1389 l 234 1389 l 405 1130 z m 646 429 b 856 722 769 465 856 580 b 545 1042 856 899 724 1042 l 102 1042 l 102 0 l 332 0 l 332 403 l 424 403 l 681 0 l 938 0 z m 510 592 l 332 592 l 332 839 l 510 839 b 637 715 583 839 637 786 b 510 592 637 642 583 592 z "},"Ŗ":{"ha":929,"x_min":0,"x_max":0,"o":"m 646 429 b 856 722 769 465 856 580 b 545 1042 856 899 724 1042 l 102 1042 l 102 0 l 332 0 l 332 403 l 424 403 l 681 0 l 938 0 z m 510 592 l 332 592 l 332 839 l 510 839 b 637 715 583 839 637 786 b 510 592 637 642 583 592 z m 280 -347 l 385 -347 l 568 -83 l 377 -83 z "},"S":{"ha":823,"x_min":0,"x_max":0,"o":"m 424 -14 b 783 295 618 -14 783 101 b 304 766 783 681 304 585 b 405 852 304 825 349 852 b 575 762 464 852 523 819 l 727 908 b 406 1056 651 997 535 1056 b 73 748 241 1056 73 957 b 554 297 73 394 554 479 b 425 201 554 240 505 201 b 217 337 330 201 255 255 l 28 219 b 424 -14 95 89 241 -14 z "},"Ś":{"ha":823,"x_min":0,"x_max":0,"o":"m 325 1130 l 470 1130 l 688 1389 l 477 1389 z m 424 -14 b 783 295 618 -14 783 101 b 304 766 783 681 304 585 b 405 852 304 825 349 852 b 575 762 464 852 523 819 l 727 908 b 406 1056 651 997 535 1056 b 73 748 241 1056 73 957 b 554 297 73 394 554 479 b 425 201 554 240 505 201 b 217 337 330 201 255 255 l 28 219 b 424 -14 95 89 241 -14 z "},"Š":{"ha":823,"x_min":0,"x_max":0,"o":"m 342 1130 l 476 1130 l 648 1389 l 509 1389 l 410 1253 l 311 1389 l 172 1389 z m 424 -14 b 783 295 618 -14 783 101 b 304 766 783 681 304 585 b 405 852 304 825 349 852 b 575 762 464 852 523 819 l 727 908 b 406 1056 651 997 535 1056 b 73 748 241 1056 73 957 b 554 297 73 394 554 479 b 425 201 554 240 505 201 b 217 337 330 201 255 255 l 28 219 b 424 -14 95 89 241 -14 z "},"Ş":{"ha":823,"x_min":0,"x_max":0,"o":"m 783 295 b 304 766 783 681 304 585 b 405 852 304 825 349 852 b 575 762 464 852 523 819 l 727 908 b 406 1056 651 997 535 1056 b 73 748 241 1056 73 957 b 554 297 73 394 554 479 b 425 201 554 240 505 201 b 217 337 330 201 255 255 l 28 219 b 365 -10 89 102 210 9 l 299 -130 l 377 -175 b 484 -208 436 -144 484 -160 b 431 -262 484 -238 460 -262 b 365 -224 406 -262 377 -245 l 267 -255 b 431 -363 288 -314 359 -363 b 585 -208 517 -363 585 -295 b 425 -82 585 -123 514 -66 l 467 -12 b 783 295 642 3 783 115 z "},"Ș":{"ha":823,"x_min":0,"x_max":0,"o":"m 424 -14 b 783 295 618 -14 783 101 b 304 766 783 681 304 585 b 405 852 304 825 349 852 b 575 762 464 852 523 819 l 727 908 b 406 1056 651 997 535 1056 b 73 748 241 1056 73 957 b 554 297 73 394 554 479 b 425 201 554 240 505 201 b 217 337 330 201 255 255 l 28 219 b 424 -14 95 89 241 -14 z m 333 -349 l 516 -85 l 325 -85 l 227 -349 z "},"T":{"ha":736,"x_min":0,"x_max":0,"o":"m 745 1042 l -9 1042 l -9 839 l 255 839 l 255 0 l 483 0 l 483 839 l 745 839 z "},"Ŧ":{"ha":736,"x_min":0,"x_max":0,"o":"m 745 839 l 745 1042 l -9 1042 l -9 839 l 255 839 l 255 580 l 125 580 l 125 462 l 255 462 l 255 0 l 483 0 l 483 462 l 611 462 l 611 580 l 483 580 l 483 839 z "},"Ť":{"ha":736,"x_min":0,"x_max":0,"o":"m 434 1130 l 606 1389 l 467 1389 l 368 1253 l 269 1389 l 130 1389 l 300 1130 z m 745 1042 l -9 1042 l -9 839 l 255 839 l 255 0 l 483 0 l 483 839 l 745 839 z "},"Ţ":{"ha":736,"x_min":0,"x_max":0,"o":"m 483 0 l 483 839 l 745 839 l 745 1042 l -9 1042 l -9 839 l 255 839 l 255 0 l 318 0 l 247 -128 l 325 -174 b 432 -207 384 -142 432 -158 b 378 -260 432 -236 408 -260 b 313 -222 354 -260 325 -243 l 215 -253 b 378 -361 236 -312 307 -361 b 533 -207 465 -361 533 -293 b 373 -80 533 -122 462 -64 l 420 0 z "},"Ț":{"ha":736,"x_min":0,"x_max":0,"o":"m 745 1042 l -9 1042 l -9 839 l 255 839 l 255 0 l 483 0 l 483 839 l 745 839 z m 175 -347 l 281 -347 l 464 -83 l 273 -83 z "},"U":{"ha":1061,"x_min":0,"x_max":0,"o":"m 530 -14 b 964 333 776 -14 964 137 l 964 1042 l 734 1042 l 734 377 b 530 189 734 271 646 189 b 326 377 415 189 326 271 l 326 1042 l 97 1042 l 97 333 b 530 -14 97 137 286 -14 z "},"Ú":{"ha":1061,"x_min":0,"x_max":0,"o":"m 444 1130 l 590 1130 l 807 1389 l 597 1389 z m 530 -14 b 964 333 776 -14 964 137 l 964 1042 l 734 1042 l 734 377 b 530 189 734 271 646 189 b 326 377 415 189 326 271 l 326 1042 l 97 1042 l 97 333 b 530 -14 97 137 286 -14 z "},"Ǔ":{"ha":1061,"x_min":0,"x_max":0,"o":"m 462 1130 l 595 1130 l 767 1389 l 628 1389 l 530 1253 l 431 1389 l 292 1389 z m 530 -14 b 964 333 776 -14 964 137 l 964 1042 l 734 1042 l 734 377 b 530 189 734 271 646 189 b 326 377 415 189 326 271 l 326 1042 l 97 1042 l 97 333 b 530 -14 97 137 286 -14 z "},"Û":{"ha":1061,"x_min":0,"x_max":0,"o":"m 431 1130 l 530 1266 l 628 1130 l 767 1130 l 595 1389 l 462 1389 l 292 1130 z m 530 -14 b 964 333 776 -14 964 137 l 964 1042 l 734 1042 l 734 377 b 530 189 734 271 646 189 b 326 377 415 189 326 271 l 326 1042 l 97 1042 l 97 333 b 530 -14 97 137 286 -14 z "},"Ü":{"ha":1061,"x_min":0,"x_max":0,"o":"m 384 1163 b 490 1267 441 1163 490 1212 b 384 1372 490 1326 441 1372 b 280 1267 328 1372 280 1326 b 384 1163 280 1212 328 1163 z m 675 1163 b 780 1267 734 1163 780 1212 b 675 1372 780 1326 734 1372 b 571 1267 620 1372 571 1326 b 675 1163 571 1212 620 1163 z m 530 -14 b 964 333 776 -14 964 137 l 964 1042 l 734 1042 l 734 377 b 530 189 734 271 646 189 b 326 377 415 189 326 271 l 326 1042 l 97 1042 l 97 333 b 530 -14 97 137 286 -14 z "},"Ù":{"ha":1061,"x_min":0,"x_max":0,"o":"m 615 1130 l 462 1389 l 252 1389 l 469 1130 z m 530 -14 b 964 333 776 -14 964 137 l 964 1042 l 734 1042 l 734 377 b 530 189 734 271 646 189 b 326 377 415 189 326 271 l 326 1042 l 97 1042 l 97 333 b 530 -14 97 137 286 -14 z "},"Ű":{"ha":1061,"x_min":0,"x_max":0,"o":"m 313 1130 l 457 1130 l 672 1389 l 464 1389 z m 592 1130 l 736 1130 l 951 1389 l 743 1389 z m 530 -14 b 964 333 776 -14 964 137 l 964 1042 l 734 1042 l 734 377 b 530 189 734 271 646 189 b 326 377 415 189 326 271 l 326 1042 l 97 1042 l 97 333 b 530 -14 97 137 286 -14 z "},"Ū":{"ha":1061,"x_min":0,"x_max":0,"o":"m 321 1153 l 740 1153 l 740 1292 l 321 1292 z m 530 -14 b 964 333 776 -14 964 137 l 964 1042 l 734 1042 l 734 377 b 530 189 734 271 646 189 b 326 377 415 189 326 271 l 326 1042 l 97 1042 l 97 333 b 530 -14 97 137 286 -14 z "},"Ų":{"ha":1061,"x_min":0,"x_max":0,"o":"m 734 1042 l 734 377 b 530 189 734 271 646 189 b 326 377 415 189 326 271 l 326 1042 l 97 1042 l 97 333 b 514 -14 97 141 278 -7 b 464 -134 483 -45 464 -85 b 639 -309 464 -226 526 -300 b 859 -224 719 -314 802 -283 l 790 -127 b 675 -201 764 -174 720 -201 b 599 -115 628 -201 599 -172 b 703 14 599 -56 639 -21 b 964 333 859 66 964 186 l 964 1042 z "},"Ů":{"ha":1061,"x_min":0,"x_max":0,"o":"m 530 1097 b 696 1267 622 1097 696 1174 b 530 1434 696 1359 622 1434 b 359 1267 436 1434 359 1359 b 530 1097 359 1174 436 1097 z m 530 1188 b 453 1267 484 1188 453 1219 b 530 1347 453 1309 484 1347 b 608 1267 573 1347 608 1309 b 530 1188 608 1219 573 1188 z m 530 -14 b 964 333 776 -14 964 137 l 964 1042 l 734 1042 l 734 377 b 530 189 734 271 646 189 b 326 377 415 189 326 271 l 326 1042 l 97 1042 l 97 333 b 530 -14 97 137 286 -14 z "},"V":{"ha":962,"x_min":0,"x_max":0,"o":"m 729 1042 l 481 297 l 233 1042 l -23 1042 l 352 0 l 609 0 l 984 1042 z "},"W":{"ha":1427,"x_min":0,"x_max":0,"o":"m 1210 1042 l 1024 319 l 825 1042 l 602 1042 l 405 316 l 217 1042 l -24 1042 l 260 0 l 524 0 l 714 733 l 903 0 l 1167 0 l 1451 1042 z "},"Ẃ":{"ha":1427,"x_min":0,"x_max":0,"o":"m 993 1389 l 783 1389 l 630 1130 l 776 1130 z m 1210 1042 l 1024 319 l 825 1042 l 602 1042 l 405 316 l 217 1042 l -24 1042 l 260 0 l 524 0 l 714 733 l 903 0 l 1167 0 l 1451 1042 z "},"Ŵ":{"ha":1427,"x_min":0,"x_max":0,"o":"m 715 1266 l 814 1130 l 953 1130 l 781 1389 l 648 1389 l 477 1130 l 616 1130 z m 1210 1042 l 1024 319 l 825 1042 l 602 1042 l 405 316 l 217 1042 l -24 1042 l 260 0 l 524 0 l 714 733 l 903 0 l 1167 0 l 1451 1042 z "},"Ẅ":{"ha":1427,"x_min":0,"x_max":0,"o":"m 569 1163 b 675 1267 627 1163 675 1212 b 569 1372 675 1326 627 1372 b 465 1267 514 1372 465 1326 b 569 1163 465 1212 514 1163 z m 861 1163 b 965 1267 920 1163 965 1212 b 861 1372 965 1326 920 1372 b 757 1267 806 1372 757 1326 b 861 1163 757 1212 806 1163 z m 1210 1042 l 1024 319 l 825 1042 l 602 1042 l 405 316 l 217 1042 l -24 1042 l 260 0 l 524 0 l 714 733 l 903 0 l 1167 0 l 1451 1042 z "},"Ẁ":{"ha":1427,"x_min":0,"x_max":0,"o":"m 800 1130 l 648 1389 l 438 1389 l 655 1130 z m 1210 1042 l 1024 319 l 825 1042 l 602 1042 l 405 316 l 217 1042 l -24 1042 l 260 0 l 524 0 l 714 733 l 903 0 l 1167 0 l 1451 1042 z "},"X":{"ha":924,"x_min":0,"x_max":0,"o":"m 944 0 l 585 538 l 925 1042 l 663 1042 l 462 726 l 260 1042 l -2 1042 l 339 536 l -23 0 l 241 0 l 462 349 l 682 0 z "},"Y":{"ha":915,"x_min":0,"x_max":0,"o":"m 936 1042 l 681 1042 l 458 689 l 236 1042 l -23 1042 l 344 490 l 344 0 l 573 0 l 573 491 z "},"Ý":{"ha":915,"x_min":0,"x_max":0,"o":"m 736 1389 l 526 1389 l 373 1130 l 519 1130 z m 936 1042 l 681 1042 l 458 689 l 236 1042 l -23 1042 l 344 490 l 344 0 l 573 0 l 573 491 z "},"Ŷ":{"ha":915,"x_min":0,"x_max":0,"o":"m 458 1266 l 557 1130 l 696 1130 l 524 1389 l 391 1389 l 220 1130 l 359 1130 z m 936 1042 l 681 1042 l 458 689 l 236 1042 l -23 1042 l 344 490 l 344 0 l 573 0 l 573 491 z "},"Ÿ":{"ha":915,"x_min":0,"x_max":0,"o":"m 313 1163 b 418 1267 370 1163 418 1212 b 313 1372 418 1326 370 1372 b 208 1267 257 1372 208 1326 b 313 1163 208 1212 257 1163 z m 604 1163 b 708 1267 663 1163 708 1212 b 604 1372 708 1326 663 1372 b 500 1267 549 1372 500 1326 b 604 1163 500 1212 549 1163 z m 936 1042 l 681 1042 l 458 689 l 236 1042 l -23 1042 l 344 490 l 344 0 l 573 0 l 573 491 z "},"Ỳ":{"ha":915,"x_min":0,"x_max":0,"o":"m 543 1130 l 391 1389 l 181 1389 l 398 1130 z m 936 1042 l 681 1042 l 458 689 l 236 1042 l -23 1042 l 344 490 l 344 0 l 573 0 l 573 491 z "},"Z":{"ha":889,"x_min":0,"x_max":0,"o":"m 839 1042 l 83 1042 l 83 839 l 483 839 l 40 0 l 839 0 l 839 203 l 399 203 z "},"Ź":{"ha":889,"x_min":0,"x_max":0,"o":"m 740 1389 l 530 1389 l 377 1130 l 523 1130 z m 839 1042 l 83 1042 l 83 839 l 483 839 l 40 0 l 839 0 l 839 203 l 399 203 z "},"Ž":{"ha":889,"x_min":0,"x_max":0,"o":"m 528 1130 l 700 1389 l 561 1389 l 462 1253 l 363 1389 l 224 1389 l 394 1130 z m 839 1042 l 83 1042 l 83 839 l 483 839 l 40 0 l 839 0 l 839 203 l 399 203 z "},"Ż":{"ha":889,"x_min":0,"x_max":0,"o":"m 462 1130 b 585 1252 530 1130 585 1186 b 462 1373 585 1319 530 1373 b 340 1252 396 1373 340 1319 b 462 1130 340 1186 396 1130 z m 839 1042 l 83 1042 l 83 839 l 483 839 l 40 0 l 839 0 l 839 203 l 399 203 z "},"a":{"ha":849,"x_min":0,"x_max":0,"o":"m 802 181 b 759 271 776 181 759 214 l 759 418 b 418 708 759 595 622 708 b 80 451 215 708 80 608 l 302 451 b 418 540 302 507 351 540 b 536 441 488 540 536 502 l 536 389 l 299 389 b 80 186 165 389 80 309 b 335 -14 80 64 181 -14 b 580 83 438 -14 526 23 b 769 -14 620 21 686 -14 b 839 0 790 -14 816 -9 l 839 181 z m 398 135 b 304 194 340 135 304 158 b 375 255 304 231 332 255 l 536 255 b 398 135 528 182 476 135 z "},"á":{"ha":849,"x_min":0,"x_max":0,"o":"m 698 1042 l 488 1042 l 335 783 l 481 783 z m 802 181 b 759 271 776 181 759 214 l 759 418 b 418 708 759 595 622 708 b 80 451 215 708 80 608 l 302 451 b 418 540 302 507 351 540 b 536 441 488 540 536 502 l 536 389 l 299 389 b 80 186 165 389 80 309 b 335 -14 80 64 181 -14 b 580 83 438 -14 526 23 b 769 -14 620 21 686 -14 b 839 0 790 -14 816 -9 l 839 181 z m 398 135 b 304 194 340 135 304 158 b 375 255 304 231 332 255 l 536 255 b 398 135 528 182 476 135 z "},"ă":{"ha":849,"x_min":0,"x_max":0,"o":"m 420 771 b 674 1016 571 771 674 851 l 549 1016 b 420 896 549 955 500 896 b 292 1016 342 896 292 955 l 167 1016 b 420 771 167 851 271 771 z m 802 181 b 759 271 776 181 759 214 l 759 418 b 418 708 759 595 622 708 b 80 451 215 708 80 608 l 302 451 b 418 540 302 507 351 540 b 536 441 488 540 536 502 l 536 389 l 299 389 b 80 186 165 389 80 309 b 335 -14 80 64 181 -14 b 580 83 438 -14 526 23 b 769 -14 620 21 686 -14 b 839 0 790 -14 816 -9 l 839 181 z m 398 135 b 304 194 340 135 304 158 b 375 255 304 231 332 255 l 536 255 b 398 135 528 182 476 135 z "},"ǎ":{"ha":849,"x_min":0,"x_max":0,"o":"m 486 783 l 658 1042 l 519 1042 l 420 906 l 321 1042 l 182 1042 l 352 783 z m 802 181 b 759 271 776 181 759 214 l 759 418 b 418 708 759 595 622 708 b 80 451 215 708 80 608 l 302 451 b 418 540 302 507 351 540 b 536 441 488 540 536 502 l 536 389 l 299 389 b 80 186 165 389 80 309 b 335 -14 80 64 181 -14 b 580 83 438 -14 526 23 b 769 -14 620 21 686 -14 b 839 0 790 -14 816 -9 l 839 181 z m 398 135 b 304 194 340 135 304 158 b 375 255 304 231 332 255 l 536 255 b 398 135 528 182 476 135 z "},"â":{"ha":849,"x_min":0,"x_max":0,"o":"m 420 918 l 519 783 l 658 783 l 486 1042 l 352 1042 l 182 783 l 321 783 z m 802 181 b 759 271 776 181 759 214 l 759 418 b 418 708 759 595 622 708 b 80 451 215 708 80 608 l 302 451 b 418 540 302 507 351 540 b 536 441 488 540 536 502 l 536 389 l 299 389 b 80 186 165 389 80 309 b 335 -14 80 64 181 -14 b 580 83 438 -14 526 23 b 769 -14 620 21 686 -14 b 839 0 790 -14 816 -9 l 839 181 z m 398 135 b 304 194 340 135 304 158 b 375 255 304 231 332 255 l 536 255 b 398 135 528 182 476 135 z "},"ä":{"ha":849,"x_min":0,"x_max":0,"o":"m 274 816 b 380 920 332 816 380 865 b 274 1024 380 979 332 1024 b 170 920 219 1024 170 979 b 274 816 170 865 219 816 z m 566 816 b 670 920 625 816 670 865 b 566 1024 670 979 625 1024 b 462 920 510 1024 462 979 b 566 816 462 865 510 816 z m 802 181 b 759 271 776 181 759 214 l 759 418 b 418 708 759 595 622 708 b 80 451 215 708 80 608 l 302 451 b 418 540 302 507 351 540 b 536 441 488 540 536 502 l 536 389 l 299 389 b 80 186 165 389 80 309 b 335 -14 80 64 181 -14 b 580 83 438 -14 526 23 b 769 -14 620 21 686 -14 b 839 0 790 -14 816 -9 l 839 181 z m 398 135 b 304 194 340 135 304 158 b 375 255 304 231 332 255 l 536 255 b 398 135 528 182 476 135 z "},"à":{"ha":849,"x_min":0,"x_max":0,"o":"m 505 783 l 352 1042 l 142 1042 l 359 783 z m 802 181 b 759 271 776 181 759 214 l 759 418 b 418 708 759 595 622 708 b 80 451 215 708 80 608 l 302 451 b 418 540 302 507 351 540 b 536 441 488 540 536 502 l 536 389 l 299 389 b 80 186 165 389 80 309 b 335 -14 80 64 181 -14 b 580 83 438 -14 526 23 b 769 -14 620 21 686 -14 b 839 0 790 -14 816 -9 l 839 181 z m 398 135 b 304 194 340 135 304 158 b 375 255 304 231 332 255 l 536 255 b 398 135 528 182 476 135 z "},"ā":{"ha":849,"x_min":0,"x_max":0,"o":"m 630 944 l 212 944 l 212 806 l 630 806 z m 802 181 b 759 271 776 181 759 214 l 759 418 b 418 708 759 595 622 708 b 80 451 215 708 80 608 l 302 451 b 418 540 302 507 351 540 b 536 441 488 540 536 502 l 536 389 l 299 389 b 80 186 165 389 80 309 b 335 -14 80 64 181 -14 b 580 83 438 -14 526 23 b 769 -14 620 21 686 -14 b 839 0 790 -14 816 -9 l 839 181 z m 398 135 b 304 194 340 135 304 158 b 375 255 304 231 332 255 l 536 255 b 398 135 528 182 476 135 z "},"ą":{"ha":849,"x_min":0,"x_max":0,"o":"m 851 -177 b 736 -252 825 -224 781 -252 b 660 -165 689 -252 660 -222 b 839 0 660 -85 733 -50 l 839 181 l 802 181 b 759 271 776 181 759 214 l 759 418 b 418 708 759 595 622 708 b 80 451 215 708 80 608 l 302 451 b 418 540 302 507 351 540 b 536 441 488 540 536 502 l 536 389 l 299 389 b 80 186 165 389 80 309 b 335 -14 80 64 181 -14 b 580 83 438 -14 526 23 b 674 3 604 47 635 21 b 524 -184 590 -36 524 -94 b 700 -359 524 -276 587 -351 b 920 -274 780 -365 863 -333 z m 398 135 b 304 194 340 135 304 158 b 375 255 304 231 332 255 l 536 255 b 398 135 528 182 476 135 z "},"å":{"ha":849,"x_min":0,"x_max":0,"o":"m 420 750 b 587 920 512 750 587 826 b 420 1087 587 1012 512 1087 b 250 920 326 1087 250 1012 b 420 750 250 826 326 750 z m 420 1000 b 498 920 464 1000 498 962 b 420 840 498 872 464 840 b 344 920 375 840 344 872 b 420 1000 344 962 375 1000 z m 802 181 b 759 271 776 181 759 214 l 759 418 b 418 708 759 595 622 708 b 80 451 215 708 80 608 l 302 451 b 418 540 302 507 351 540 b 536 441 488 540 536 502 l 536 389 l 299 389 b 80 186 165 389 80 309 b 335 -14 80 64 181 -14 b 580 83 438 -14 526 23 b 769 -14 620 21 686 -14 b 839 0 790 -14 816 -9 l 839 181 z m 398 135 b 304 194 340 135 304 158 b 375 255 304 231 332 255 l 536 255 b 398 135 528 182 476 135 z "},"ã":{"ha":849,"x_min":0,"x_max":0,"o":"m 335 882 b 366 861 347 882 356 877 b 507 780 405 806 450 780 b 675 1000 620 780 675 875 l 543 1000 b 503 906 543 943 535 906 b 474 929 490 906 481 915 b 330 1010 443 972 396 1010 b 163 788 226 1010 163 918 l 295 788 b 335 882 295 842 306 882 z m 802 181 b 759 271 776 181 759 214 l 759 418 b 418 708 759 595 622 708 b 80 451 215 708 80 608 l 302 451 b 418 540 302 507 351 540 b 536 441 488 540 536 502 l 536 389 l 299 389 b 80 186 165 389 80 309 b 335 -14 80 64 181 -14 b 580 83 438 -14 526 23 b 769 -14 620 21 686 -14 b 839 0 790 -14 816 -9 l 839 181 z m 398 135 b 304 194 340 135 304 158 b 375 255 304 231 332 255 l 536 255 b 398 135 528 182 476 135 z "},"æ":{"ha":1361,"x_min":0,"x_max":0,"o":"m 1306 349 b 922 710 1304 566 1149 710 b 665 630 821 710 731 681 b 420 708 608 681 523 708 b 113 533 262 708 146 642 l 304 479 b 418 547 309 523 354 550 b 528 446 483 543 528 510 l 528 413 l 342 413 b 80 198 181 413 80 333 b 337 -14 80 69 172 -14 b 625 101 448 -14 547 26 b 927 -14 694 28 800 -14 b 1293 240 1127 -14 1259 89 l 1078 240 b 925 151 1059 184 1003 151 b 766 311 823 151 774 212 l 1304 311 z m 925 540 b 1071 444 1002 540 1049 505 l 778 444 b 925 540 800 503 845 540 z m 392 142 b 309 208 344 142 309 165 b 398 281 309 253 345 281 l 536 281 b 547 238 538 266 542 252 b 392 142 516 179 453 142 z "},"b":{"ha":918,"x_min":0,"x_max":0,"o":"m 523 708 b 325 634 443 708 377 681 l 325 1189 l 102 1189 l 102 0 l 325 -2 l 325 61 b 523 -14 377 14 443 -14 b 865 347 714 -14 865 146 b 523 708 865 549 714 708 z m 479 182 b 314 347 387 182 314 255 b 479 512 314 439 387 512 b 644 347 571 512 644 439 b 479 182 644 255 571 182 z "},"c":{"ha":861,"x_min":0,"x_max":0,"o":"m 441 -14 b 821 281 649 -14 792 108 l 592 281 b 441 182 569 222 512 184 b 276 347 345 184 276 253 b 441 512 276 441 345 510 b 592 413 512 510 569 472 l 821 413 b 441 708 792 587 649 708 b 54 347 208 708 54 556 b 441 -14 54 139 208 -14 z "},"ć":{"ha":861,"x_min":0,"x_max":0,"o":"m 319 785 l 465 785 l 682 1043 l 472 1043 z m 441 -14 b 821 281 649 -14 792 108 l 592 281 b 441 182 569 222 512 184 b 276 347 345 184 276 253 b 441 512 276 441 345 510 b 592 413 512 510 569 472 l 821 413 b 441 708 792 587 649 708 b 54 347 208 708 54 556 b 441 -14 54 139 208 -14 z "},"č":{"ha":861,"x_min":0,"x_max":0,"o":"m 337 785 l 470 785 l 642 1043 l 503 1043 l 405 908 l 306 1043 l 167 1043 z m 441 -14 b 821 281 649 -14 792 108 l 592 281 b 441 182 569 222 512 184 b 276 347 345 184 276 253 b 441 512 276 441 345 510 b 592 413 512 510 569 472 l 821 413 b 441 708 792 587 649 708 b 54 347 208 708 54 556 b 441 -14 54 139 208 -14 z "},"ç":{"ha":861,"x_min":0,"x_max":0,"o":"m 441 182 b 276 347 345 184 276 253 b 441 512 276 441 345 510 b 592 413 512 510 569 472 l 821 413 b 441 708 792 587 649 708 b 54 347 208 708 54 556 b 365 -9 54 163 175 21 l 297 -130 l 375 -175 b 483 -208 434 -144 483 -160 b 429 -262 483 -238 458 -262 b 363 -224 405 -262 375 -245 l 266 -255 b 429 -363 286 -314 358 -363 b 583 -208 516 -363 583 -295 b 424 -82 583 -123 512 -66 l 464 -14 b 821 281 660 -5 793 115 l 592 281 b 441 182 569 222 512 184 z "},"ċ":{"ha":861,"x_min":0,"x_max":0,"o":"m 405 785 b 528 906 472 785 528 840 b 405 1028 528 974 472 1028 b 283 906 339 1028 283 974 b 405 785 283 840 339 785 z m 441 -14 b 821 281 649 -14 792 108 l 592 281 b 441 182 569 222 512 184 b 276 347 345 184 276 253 b 441 512 276 441 345 510 b 592 413 512 510 569 472 l 821 413 b 441 708 792 587 649 708 b 54 347 208 708 54 556 b 441 -14 54 139 208 -14 z "},"d":{"ha":918,"x_min":0,"x_max":0,"o":"m 595 1189 l 595 634 b 398 708 543 681 477 708 b 54 347 205 708 54 549 b 398 -14 54 146 205 -14 b 595 61 477 -14 543 14 l 595 -2 l 816 0 l 816 1189 z m 441 182 b 276 347 349 182 276 255 b 441 512 276 439 349 512 b 606 347 531 512 606 439 b 441 182 606 255 531 182 z "},"ð":{"ha":875,"x_min":0,"x_max":0,"o":"m 552 988 l 611 1064 l 512 1141 l 443 1052 b 208 1101 370 1083 292 1101 l 163 925 b 323 901 214 927 269 920 l 271 835 l 372 759 l 434 839 b 543 696 476 804 514 757 b 443 708 512 705 477 708 b 54 347 226 708 54 549 b 443 -14 54 146 226 -14 b 832 347 661 -14 832 146 b 552 988 832 635 722 861 z m 443 182 b 278 347 351 182 278 255 b 443 512 278 439 351 512 b 608 347 535 512 608 439 b 443 182 608 255 535 182 z "},"ď":{"ha":1170,"x_min":0,"x_max":0,"o":"m 595 634 b 398 708 543 681 477 708 b 54 347 205 708 54 549 b 398 -14 54 146 205 -14 b 595 61 477 -14 543 14 l 595 -2 l 816 0 l 816 1189 l 595 1189 z m 1019 1189 l 901 769 l 1016 769 l 1203 1189 z m 441 182 b 276 347 349 182 276 255 b 441 512 276 439 349 512 b 606 347 531 512 606 439 b 441 182 606 255 531 182 z "},"đ":{"ha":918,"x_min":0,"x_max":0,"o":"m 905 967 l 816 967 l 816 1189 l 595 1189 l 595 967 l 418 967 l 418 849 l 595 849 l 595 634 b 398 708 543 681 477 708 b 54 347 205 708 54 549 b 398 -14 54 146 205 -14 b 595 61 477 -14 543 14 l 595 -2 l 816 0 l 816 849 l 905 849 z m 441 182 b 276 347 349 182 276 255 b 441 512 276 439 349 512 b 606 347 531 512 606 439 b 441 182 606 255 531 182 z "},"e":{"ha":884,"x_min":0,"x_max":0,"o":"m 828 349 b 444 710 826 566 672 710 b 54 347 217 710 54 564 b 450 -14 54 130 215 -14 b 816 240 649 -14 781 89 l 601 240 b 448 151 582 184 526 151 b 288 311 345 151 297 212 l 826 311 z m 448 540 b 594 444 524 540 571 505 l 300 444 b 448 540 323 503 368 540 z "},"é":{"ha":884,"x_min":0,"x_max":0,"o":"m 729 1043 l 519 1043 l 366 785 l 512 785 z m 828 349 b 444 710 826 566 672 710 b 54 347 217 710 54 564 b 450 -14 54 130 215 -14 b 816 240 649 -14 781 89 l 601 240 b 448 151 582 184 526 151 b 288 311 345 151 297 212 l 826 311 z m 448 540 b 594 444 524 540 571 505 l 300 444 b 448 540 323 503 368 540 z "},"ě":{"ha":884,"x_min":0,"x_max":0,"o":"m 517 785 l 689 1043 l 550 1043 l 451 908 l 352 1043 l 214 1043 l 384 785 z m 828 349 b 444 710 826 566 672 710 b 54 347 217 710 54 564 b 450 -14 54 130 215 -14 b 816 240 649 -14 781 89 l 601 240 b 448 151 582 184 526 151 b 288 311 345 151 297 212 l 826 311 z m 448 540 b 594 444 524 540 571 505 l 300 444 b 448 540 323 503 368 540 z "},"ê":{"ha":884,"x_min":0,"x_max":0,"o":"m 451 920 l 550 785 l 689 785 l 517 1043 l 384 1043 l 214 785 l 352 785 z m 828 349 b 444 710 826 566 672 710 b 54 347 217 710 54 564 b 450 -14 54 130 215 -14 b 816 240 649 -14 781 89 l 601 240 b 448 151 582 184 526 151 b 288 311 345 151 297 212 l 826 311 z m 448 540 b 594 444 524 540 571 505 l 300 444 b 448 540 323 503 368 540 z "},"ë":{"ha":884,"x_min":0,"x_max":0,"o":"m 306 818 b 411 922 363 818 411 866 b 306 1026 411 981 363 1026 b 201 922 250 1026 201 981 b 306 818 201 866 250 818 z m 597 818 b 701 922 656 818 701 866 b 597 1026 701 981 656 1026 b 493 922 542 1026 493 981 b 597 818 493 866 542 818 z m 828 349 b 444 710 826 566 672 710 b 54 347 217 710 54 564 b 450 -14 54 130 215 -14 b 816 240 649 -14 781 89 l 601 240 b 448 151 582 184 526 151 b 288 311 345 151 297 212 l 826 311 z m 448 540 b 594 444 524 540 571 505 l 300 444 b 448 540 323 503 368 540 z "},"ė":{"ha":884,"x_min":0,"x_max":0,"o":"m 451 785 b 575 906 519 785 575 840 b 451 1028 575 974 519 1028 b 330 906 385 1028 330 974 b 451 785 330 840 385 785 z m 828 349 b 444 710 826 566 672 710 b 54 347 217 710 54 564 b 450 -14 54 130 215 -14 b 816 240 649 -14 781 89 l 601 240 b 448 151 582 184 526 151 b 288 311 345 151 297 212 l 826 311 z m 448 540 b 594 444 524 540 571 505 l 300 444 b 448 540 323 503 368 540 z "},"è":{"ha":884,"x_min":0,"x_max":0,"o":"m 536 785 l 384 1043 l 174 1043 l 391 785 z m 828 349 b 444 710 826 566 672 710 b 54 347 217 710 54 564 b 450 -14 54 130 215 -14 b 816 240 649 -14 781 89 l 601 240 b 448 151 582 184 526 151 b 288 311 345 151 297 212 l 826 311 z m 448 540 b 594 444 524 540 571 505 l 300 444 b 448 540 323 503 368 540 z "},"ē":{"ha":884,"x_min":0,"x_max":0,"o":"m 661 946 l 243 946 l 243 807 l 661 807 z m 828 349 b 444 710 826 566 672 710 b 54 347 217 710 54 564 b 450 -14 54 130 215 -14 b 816 240 649 -14 781 89 l 601 240 b 448 151 582 184 526 151 b 288 311 345 151 297 212 l 826 311 z m 448 540 b 594 444 524 540 571 505 l 300 444 b 448 540 323 503 368 540 z "},"ę":{"ha":884,"x_min":0,"x_max":0,"o":"m 828 349 b 444 710 826 566 672 710 b 54 347 217 710 54 564 b 403 -12 54 144 194 5 b 326 -156 358 -49 326 -95 b 502 -332 326 -248 389 -323 b 722 -247 582 -337 665 -306 l 653 -149 b 538 -224 627 -196 583 -224 b 462 -137 491 -224 462 -194 b 602 10 462 -68 517 -31 b 816 240 717 49 792 132 l 601 240 b 448 151 582 184 526 151 b 288 311 345 151 297 212 l 826 311 z m 448 540 b 594 444 524 540 571 505 l 300 444 b 448 540 323 503 368 540 z "},"f":{"ha":523,"x_min":0,"x_max":0,"o":"m 523 694 l 358 694 l 358 903 b 436 995 358 960 389 995 l 519 995 l 519 1168 b 408 1189 502 1181 455 1189 b 135 929 260 1189 135 1076 l 135 694 l 19 694 l 19 523 l 135 523 l 135 0 l 358 0 l 358 523 l 523 523 z "},"g":{"ha":938,"x_min":0,"x_max":0,"o":"m 832 694 l 609 694 l 609 635 b 413 708 559 682 491 708 b 71 347 220 708 71 550 b 413 -14 71 146 220 -14 b 613 61 493 -14 561 14 l 613 -19 b 429 -226 613 -148 542 -226 b 262 -113 349 -226 288 -182 l 59 -194 b 429 -418 116 -337 247 -418 b 833 -7 682 -418 833 -264 z m 457 182 b 292 347 365 182 292 255 b 457 512 292 439 365 512 b 622 347 549 512 622 439 b 457 182 622 255 549 182 z "},"ğ":{"ha":938,"x_min":0,"x_max":0,"o":"m 451 771 b 705 1016 602 771 705 851 l 580 1016 b 451 896 580 955 531 896 b 323 1016 373 896 323 955 l 198 1016 b 451 771 198 851 302 771 z m 832 694 l 609 694 l 609 635 b 413 708 559 682 491 708 b 71 347 220 708 71 550 b 413 -14 71 146 220 -14 b 613 61 493 -14 561 14 l 613 -19 b 429 -226 613 -148 542 -226 b 262 -113 349 -226 288 -182 l 59 -194 b 429 -418 116 -337 247 -418 b 833 -7 682 -418 833 -264 z m 457 182 b 292 347 365 182 292 255 b 457 512 292 439 365 512 b 622 347 549 512 622 439 b 457 182 622 255 549 182 z "},"ģ":{"ha":938,"x_min":0,"x_max":0,"o":"m 670 1054 l 564 1054 l 382 790 l 573 790 z m 832 694 l 609 694 l 609 635 b 413 708 559 682 491 708 b 71 347 220 708 71 550 b 413 -14 71 146 220 -14 b 613 61 493 -14 561 14 l 613 -19 b 429 -226 613 -148 542 -226 b 262 -113 349 -226 288 -182 l 59 -194 b 429 -418 116 -337 247 -418 b 833 -7 682 -418 833 -264 z m 457 182 b 292 347 365 182 292 255 b 457 512 292 439 365 512 b 622 347 549 512 622 439 b 457 182 622 255 549 182 z "},"ġ":{"ha":938,"x_min":0,"x_max":0,"o":"m 451 783 b 575 905 519 783 575 839 b 451 1026 575 972 519 1026 b 330 905 385 1026 330 972 b 451 783 330 839 385 783 z m 832 694 l 609 694 l 609 635 b 413 708 559 682 491 708 b 71 347 220 708 71 550 b 413 -14 71 146 220 -14 b 613 61 493 -14 561 14 l 613 -19 b 429 -226 613 -148 542 -226 b 262 -113 349 -226 288 -182 l 59 -194 b 429 -418 116 -337 247 -418 b 833 -7 682 -418 833 -264 z m 457 182 b 292 347 365 182 292 255 b 457 512 292 439 365 512 b 622 347 549 512 622 439 b 457 182 622 255 549 182 z "},"h":{"ha":858,"x_min":0,"x_max":0,"o":"m 519 708 b 325 616 443 708 373 674 l 325 1189 l 102 1189 l 102 0 l 325 0 l 325 392 b 443 512 325 453 375 512 b 549 403 505 512 549 464 l 549 0 l 771 0 l 771 439 b 519 708 771 592 660 708 z "},"ħ":{"ha":858,"x_min":0,"x_max":0,"o":"m 519 708 b 325 616 443 708 373 674 l 325 856 l 500 856 l 500 974 l 325 974 l 325 1189 l 102 1189 l 102 974 l 14 974 l 14 856 l 102 856 l 102 0 l 325 0 l 325 392 b 443 512 325 453 375 512 b 549 403 505 512 549 464 l 549 0 l 771 0 l 771 439 b 519 708 771 592 660 708 z "},"i":{"ha":434,"x_min":0,"x_max":0,"o":"m 217 811 b 339 932 283 811 339 866 b 217 1054 339 1000 283 1054 b 95 932 151 1054 95 1000 b 217 811 95 866 151 811 z m 106 0 l 326 0 l 326 694 l 106 694 z "},"ı":{"ha":444,"x_min":0,"x_max":0,"o":"m 111 0 l 333 0 l 333 694 l 111 694 z "},"í":{"ha":444,"x_min":0,"x_max":0,"o":"m 137 783 l 283 783 l 500 1042 l 290 1042 z m 111 0 l 333 0 l 333 694 l 111 694 z "},"ǐ":{"ha":444,"x_min":0,"x_max":0,"o":"m 155 783 l 288 783 l 460 1042 l 321 1042 l 222 906 l 123 1042 l -16 1042 z m 111 0 l 333 0 l 333 694 l 111 694 z "},"î":{"ha":444,"x_min":0,"x_max":0,"o":"m 123 783 l 222 918 l 321 783 l 460 783 l 288 1042 l 155 1042 l -16 783 z m 111 0 l 333 0 l 333 694 l 111 694 z "},"ï":{"ha":444,"x_min":0,"x_max":0,"o":"m 76 816 b 182 920 134 816 182 865 b 76 1024 182 979 134 1024 b -28 920 21 1024 -28 979 b 76 816 -28 865 21 816 z m 368 816 b 472 920 427 816 472 865 b 368 1024 472 979 427 1024 b 264 920 313 1024 264 979 b 368 816 264 865 313 816 z m 111 0 l 333 0 l 333 694 l 111 694 z "},"ì":{"ha":444,"x_min":0,"x_max":0,"o":"m 307 783 l 155 1042 l -56 1042 l 161 783 z m 111 0 l 333 0 l 333 694 l 111 694 z "},"ī":{"ha":444,"x_min":0,"x_max":0,"o":"m 14 806 l 432 806 l 432 944 l 14 944 z m 111 0 l 333 0 l 333 694 l 111 694 z "},"į":{"ha":444,"x_min":0,"x_max":0,"o":"m 222 783 b 345 905 290 783 345 839 b 222 1026 345 972 290 1026 b 101 905 156 1026 101 972 b 222 783 101 839 156 783 z m 325 -177 b 210 -252 299 -224 255 -252 b 134 -165 163 -252 134 -222 b 313 0 134 -85 207 -50 l 333 0 l 333 694 l 111 694 l 111 0 l 139 0 b -2 -184 59 -40 -2 -97 b 174 -359 -2 -276 61 -351 b 394 -274 253 -365 337 -333 z "},"j":{"ha":434,"x_min":0,"x_max":0,"o":"m 217 811 b 339 932 283 811 339 866 b 217 1054 339 1000 283 1054 b 95 932 151 1054 95 1000 b 217 811 95 866 151 811 z m 56 -417 b 326 -155 201 -417 326 -302 l 326 694 l 106 694 l 106 -128 b 28 -222 106 -186 73 -222 l -57 -222 l -57 -394 b 56 -417 -38 -406 9 -417 z "},"ȷ":{"ha":427,"x_min":0,"x_max":0,"o":"m 52 -417 b 325 -155 200 -417 325 -302 l 325 694 l 104 694 l 104 -128 b 24 -222 104 -186 71 -222 l -59 -222 l -59 -394 b 52 -417 -40 -406 5 -417 z "},"k":{"ha":835,"x_min":0,"x_max":0,"o":"m 866 0 l 536 380 l 840 694 l 575 694 l 333 444 l 333 1189 l 113 1189 l 113 0 l 333 0 l 333 319 l 578 0 z "},"ķ":{"ha":835,"x_min":0,"x_max":0,"o":"m 536 380 l 840 694 l 575 694 l 333 444 l 333 1189 l 113 1189 l 113 0 l 333 0 l 333 319 l 578 0 l 866 0 z m 255 -347 l 361 -347 l 543 -83 l 352 -83 z "},"l":{"ha":427,"x_min":0,"x_max":0,"o":"m 102 0 l 325 0 l 325 1189 l 102 1189 z "},"ĺ":{"ha":427,"x_min":0,"x_max":0,"o":"m 128 1278 l 274 1278 l 491 1536 l 281 1536 z m 102 0 l 325 0 l 325 1189 l 102 1189 z "},"ľ":{"ha":675,"x_min":0,"x_max":0,"o":"m 102 0 l 325 0 l 325 1189 l 102 1189 z m 521 769 l 708 1189 l 524 1189 l 406 769 z "},"ļ":{"ha":427,"x_min":0,"x_max":0,"o":"m 102 0 l 325 0 l 325 1189 l 102 1189 z m 127 -347 l 309 -83 l 118 -83 l 21 -347 z "},"ŀ":{"ha":427,"x_min":0,"x_max":0,"o":"m 102 0 l 325 0 l 325 1189 l 102 1189 z m 451 424 b 533 503 493 424 533 458 b 451 582 533 545 493 582 b 373 503 410 582 373 545 b 451 424 373 458 410 424 z "},"ł":{"ha":427,"x_min":0,"x_max":0,"o":"m 497 793 l 406 870 l 325 785 l 325 1189 l 102 1189 l 102 550 l -69 370 l 17 292 l 102 380 l 102 0 l 325 0 l 325 613 z "},"m":{"ha":1257,"x_min":0,"x_max":0,"o":"m 931 708 b 712 587 832 708 755 663 b 514 708 672 660 602 708 b 325 609 434 708 370 670 l 325 694 l 102 694 l 102 0 l 325 0 l 325 403 b 424 512 325 453 356 512 b 524 403 484 512 524 464 l 524 0 l 747 0 l 747 403 b 845 512 747 453 778 512 b 948 403 906 512 948 464 l 948 0 l 1168 0 l 1168 439 b 931 708 1168 601 1083 708 z "},"n":{"ha":859,"x_min":0,"x_max":0,"o":"m 533 708 b 325 608 448 708 375 670 l 325 694 l 102 694 l 102 0 l 325 0 l 325 403 b 441 512 325 465 377 512 b 550 403 505 512 550 465 l 550 0 l 771 0 l 771 450 b 533 708 771 604 670 708 z "},"ń":{"ha":859,"x_min":0,"x_max":0,"o":"m 719 1042 l 509 1042 l 356 783 l 502 783 z m 533 708 b 325 608 448 708 375 670 l 325 694 l 102 694 l 102 0 l 325 0 l 325 403 b 441 512 325 465 377 512 b 550 403 505 512 550 465 l 550 0 l 771 0 l 771 450 b 533 708 771 604 670 708 z "},"ň":{"ha":859,"x_min":0,"x_max":0,"o":"m 507 783 l 679 1042 l 540 1042 l 441 906 l 342 1042 l 203 1042 l 373 783 z m 533 708 b 325 608 448 708 375 670 l 325 694 l 102 694 l 102 0 l 325 0 l 325 403 b 441 512 325 465 377 512 b 550 403 505 512 550 465 l 550 0 l 771 0 l 771 450 b 533 708 771 604 670 708 z "},"ņ":{"ha":859,"x_min":0,"x_max":0,"o":"m 533 708 b 325 608 448 708 375 670 l 325 694 l 102 694 l 102 0 l 325 0 l 325 403 b 441 512 325 465 377 512 b 550 403 505 512 550 465 l 550 0 l 771 0 l 771 450 b 533 708 771 604 670 708 z m 245 -347 l 351 -347 l 533 -83 l 342 -83 z "},"ŋ":{"ha":859,"x_min":0,"x_max":0,"o":"m 523 708 b 325 609 443 708 373 670 l 325 694 l 102 694 l 102 0 l 325 0 l 325 403 b 441 512 325 467 375 512 b 550 403 503 512 550 467 l 550 -127 b 448 -253 550 -245 505 -252 l 448 -385 b 771 -118 639 -385 771 -323 l 771 439 b 523 708 771 592 660 708 z "},"ñ":{"ha":859,"x_min":0,"x_max":0,"o":"m 356 882 b 387 861 368 882 377 877 b 528 780 425 806 470 780 b 696 1000 641 780 696 875 l 564 1000 b 524 906 564 943 556 906 b 495 929 510 906 502 915 b 351 1010 464 972 417 1010 b 184 788 247 1010 184 918 l 316 788 b 356 882 316 842 326 882 z m 533 708 b 325 608 448 708 375 670 l 325 694 l 102 694 l 102 0 l 325 0 l 325 403 b 441 512 325 465 377 512 b 550 403 505 512 550 465 l 550 0 l 771 0 l 771 450 b 533 708 771 604 670 708 z "},"o":{"ha":882,"x_min":0,"x_max":0,"o":"m 441 -14 b 826 347 674 -14 826 139 b 441 708 826 556 674 708 b 54 347 208 708 54 556 b 441 -14 54 139 208 -14 z m 441 182 b 276 347 345 184 276 253 b 441 512 276 441 345 510 b 606 347 535 510 606 441 b 441 182 606 253 535 184 z "},"ó":{"ha":882,"x_min":0,"x_max":0,"o":"m 356 783 l 502 783 l 719 1042 l 509 1042 z m 441 -14 b 826 347 674 -14 826 139 b 441 708 826 556 674 708 b 54 347 208 708 54 556 b 441 -14 54 139 208 -14 z m 441 182 b 276 347 345 184 276 253 b 441 512 276 441 345 510 b 606 347 535 510 606 441 b 441 182 606 253 535 184 z "},"ǒ":{"ha":882,"x_min":0,"x_max":0,"o":"m 373 783 l 507 783 l 679 1042 l 540 1042 l 441 906 l 342 1042 l 203 1042 z m 441 -14 b 826 347 674 -14 826 139 b 441 708 826 556 674 708 b 54 347 208 708 54 556 b 441 -14 54 139 208 -14 z m 441 182 b 276 347 345 184 276 253 b 441 512 276 441 345 510 b 606 347 535 510 606 441 b 441 182 606 253 535 184 z "},"ô":{"ha":882,"x_min":0,"x_max":0,"o":"m 342 783 l 441 918 l 540 783 l 679 783 l 507 1042 l 373 1042 l 203 783 z m 441 -14 b 826 347 674 -14 826 139 b 441 708 826 556 674 708 b 54 347 208 708 54 556 b 441 -14 54 139 208 -14 z m 441 182 b 276 347 345 184 276 253 b 441 512 276 441 345 510 b 606 347 535 510 606 441 b 441 182 606 253 535 184 z "},"ö":{"ha":882,"x_min":0,"x_max":0,"o":"m 295 816 b 401 920 352 816 401 865 b 295 1024 401 979 352 1024 b 191 920 240 1024 191 979 b 295 816 191 865 240 816 z m 587 816 b 691 920 646 816 691 865 b 587 1024 691 979 646 1024 b 483 920 531 1024 483 979 b 587 816 483 865 531 816 z m 441 -14 b 826 347 674 -14 826 139 b 441 708 826 556 674 708 b 54 347 208 708 54 556 b 441 -14 54 139 208 -14 z m 441 182 b 276 347 345 184 276 253 b 441 512 276 441 345 510 b 606 347 535 510 606 441 b 441 182 606 253 535 184 z "},"ò":{"ha":882,"x_min":0,"x_max":0,"o":"m 526 783 l 373 1042 l 163 1042 l 380 783 z m 441 -14 b 826 347 674 -14 826 139 b 441 708 826 556 674 708 b 54 347 208 708 54 556 b 441 -14 54 139 208 -14 z m 441 182 b 276 347 345 184 276 253 b 441 512 276 441 345 510 b 606 347 535 510 606 441 b 441 182 606 253 535 184 z "},"ő":{"ha":882,"x_min":0,"x_max":0,"o":"m 224 783 l 368 783 l 583 1042 l 375 1042 z m 503 783 l 648 783 l 863 1042 l 655 1042 z m 441 -14 b 826 347 674 -14 826 139 b 441 708 826 556 674 708 b 54 347 208 708 54 556 b 441 -14 54 139 208 -14 z m 441 182 b 276 347 345 184 276 253 b 441 512 276 441 345 510 b 606 347 535 510 606 441 b 441 182 606 253 535 184 z "},"ō":{"ha":882,"x_min":0,"x_max":0,"o":"m 233 806 l 651 806 l 651 944 l 233 944 z m 441 -14 b 826 347 674 -14 826 139 b 441 708 826 556 674 708 b 54 347 208 708 54 556 b 441 -14 54 139 208 -14 z m 441 182 b 276 347 345 184 276 253 b 441 512 276 441 345 510 b 606 347 535 510 606 441 b 441 182 606 253 535 184 z "},"ø":{"ha":882,"x_min":0,"x_max":0,"o":"m 700 625 l 750 698 l 660 753 l 608 679 b 441 708 559 698 502 708 b 54 347 208 708 54 556 b 184 68 54 231 101 134 l 134 -3 l 224 -57 l 274 16 b 441 -14 325 -3 380 -14 b 826 347 674 -14 826 139 b 700 625 826 462 780 561 z m 276 347 b 441 512 276 441 345 510 b 488 505 457 512 472 509 l 307 247 b 276 347 288 274 276 309 z m 441 182 b 396 189 425 182 410 184 l 575 446 b 606 347 594 418 606 385 b 441 182 606 253 535 184 z "},"õ":{"ha":882,"x_min":0,"x_max":0,"o":"m 528 780 b 696 1000 641 780 696 875 l 564 1000 b 524 906 564 943 556 906 b 495 929 510 906 502 915 b 351 1010 464 972 417 1010 b 184 788 247 1010 184 918 l 316 788 b 356 882 316 842 326 882 b 387 861 368 882 377 877 b 528 780 425 806 470 780 z m 441 -14 b 826 347 674 -14 826 139 b 441 708 826 556 674 708 b 54 347 208 708 54 556 b 441 -14 54 139 208 -14 z m 441 182 b 276 347 345 184 276 253 b 441 512 276 441 345 510 b 606 347 535 510 606 441 b 441 182 606 253 535 184 z "},"œ":{"ha":1439,"x_min":0,"x_max":0,"o":"m 1384 349 b 1000 710 1382 566 1227 710 b 719 609 885 710 786 674 b 441 708 651 672 556 708 b 54 347 208 708 54 556 b 441 -14 54 139 208 -14 b 719 87 556 -14 651 23 b 1005 -14 788 23 887 -14 b 1372 240 1205 -14 1337 89 l 1156 240 b 1003 151 1137 184 1082 151 b 844 311 901 151 852 212 l 1382 311 z m 1003 540 b 1149 444 1080 540 1127 505 l 856 444 b 1003 540 878 503 924 540 z m 441 182 b 276 347 345 184 276 253 b 441 512 276 441 345 510 b 606 347 535 510 606 441 b 441 182 606 253 535 184 z "},"p":{"ha":918,"x_min":0,"x_max":0,"o":"m 523 708 b 325 634 443 708 377 681 l 325 693 l 102 694 l 102 -417 l 325 -418 l 325 61 b 523 -14 377 14 443 -14 b 865 347 714 -14 865 146 b 523 708 865 549 714 708 z m 479 182 b 314 347 387 182 314 255 b 479 512 314 439 387 512 b 644 347 571 512 644 439 b 479 182 644 255 571 182 z "},"þ":{"ha":927,"x_min":0,"x_max":0,"o":"m 530 708 b 333 635 451 708 385 682 l 333 1064 l 113 1064 l 113 -417 l 333 -417 l 333 59 b 530 -14 385 12 451 -14 b 872 347 724 -14 872 146 b 530 708 872 549 724 708 z m 498 182 b 333 347 406 182 333 255 b 498 512 333 439 406 512 b 663 347 590 512 663 439 b 498 182 663 255 590 182 z "},"q":{"ha":918,"x_min":0,"x_max":0,"o":"m 896 -222 b 816 -128 849 -222 816 -186 l 816 694 l 595 694 l 595 634 b 398 708 543 681 477 708 b 54 347 205 708 54 549 b 398 -14 54 146 205 -14 b 595 61 477 -14 543 14 l 595 -155 b 868 -417 595 -302 720 -417 b 960 -403 903 -417 938 -410 l 960 -222 z m 441 182 b 276 347 349 182 276 255 b 441 512 276 439 349 512 b 606 347 531 512 606 439 b 441 182 606 255 531 182 z "},"r":{"ha":573,"x_min":0,"x_max":0,"o":"m 519 708 b 325 599 438 708 370 667 l 325 694 l 102 694 l 102 0 l 325 0 l 325 332 b 512 512 325 446 403 512 b 576 510 538 512 561 512 l 576 701 b 519 708 561 707 540 708 z "},"ŕ":{"ha":573,"x_min":0,"x_max":0,"o":"m 587 1042 l 377 1042 l 224 783 l 370 783 z m 325 599 l 325 694 l 102 694 l 102 0 l 325 0 l 325 332 b 512 512 325 446 403 512 b 576 510 538 512 561 512 l 576 701 b 519 708 561 707 540 708 b 325 599 438 708 370 667 z "},"ř":{"ha":573,"x_min":0,"x_max":0,"o":"m 375 783 l 547 1042 l 408 1042 l 309 906 l 210 1042 l 71 1042 l 241 783 z m 519 708 b 325 599 438 708 370 667 l 325 694 l 102 694 l 102 0 l 325 0 l 325 332 b 512 512 325 446 403 512 b 576 510 538 512 561 512 l 576 701 b 519 708 561 707 540 708 z "},"ŗ":{"ha":573,"x_min":0,"x_max":0,"o":"m 519 708 b 325 599 438 708 370 667 l 325 694 l 102 694 l 102 0 l 325 0 l 325 332 b 512 512 325 446 403 512 b 576 510 538 512 561 512 l 576 701 b 519 708 561 707 540 708 z m 21 -347 l 127 -347 l 309 -83 l 118 -83 z "},"s":{"ha":623,"x_min":0,"x_max":0,"o":"m 326 -14 b 578 212 483 -14 578 82 b 365 444 578 351 464 406 b 290 502 314 465 290 476 b 345 542 290 524 307 542 b 453 491 391 542 432 517 l 564 616 b 330 708 512 668 427 708 b 71 486 172 708 71 604 b 290 271 71 347 210 300 b 373 205 352 247 373 229 b 313 161 373 177 349 161 b 196 234 276 161 227 175 l 33 153 b 326 -14 75 45 203 -14 z "},"ś":{"ha":623,"x_min":0,"x_max":0,"o":"m 245 783 l 391 783 l 608 1042 l 398 1042 z m 326 -14 b 578 212 483 -14 578 82 b 365 444 578 351 464 406 b 290 502 314 465 290 476 b 345 542 290 524 307 542 b 453 491 391 542 432 517 l 564 616 b 330 708 512 668 427 708 b 71 486 172 708 71 604 b 290 271 71 347 210 300 b 373 205 352 247 373 229 b 313 161 373 177 349 161 b 196 234 276 161 227 175 l 33 153 b 326 -14 75 45 203 -14 z "},"š":{"ha":623,"x_min":0,"x_max":0,"o":"m 262 783 l 396 783 l 568 1042 l 429 1042 l 330 906 l 231 1042 l 92 1042 z m 326 -14 b 578 212 483 -14 578 82 b 365 444 578 351 464 406 b 290 502 314 465 290 476 b 345 542 290 524 307 542 b 453 491 391 542 432 517 l 564 616 b 330 708 512 668 427 708 b 71 486 172 708 71 604 b 290 271 71 347 210 300 b 373 205 352 247 373 229 b 313 161 373 177 349 161 b 196 234 276 161 227 175 l 33 153 b 326 -14 75 45 203 -14 z "},"ş":{"ha":623,"x_min":0,"x_max":0,"o":"m 578 212 b 365 444 578 351 464 406 b 290 502 314 465 290 476 b 345 542 290 524 307 542 b 453 491 391 542 432 517 l 564 616 b 330 708 512 668 427 708 b 71 486 172 708 71 604 b 290 271 71 347 210 300 b 373 205 352 247 373 229 b 313 161 373 177 349 161 b 196 234 276 161 227 175 l 33 153 b 269 -10 68 63 165 5 l 203 -128 l 281 -174 b 389 -207 340 -142 389 -158 b 335 -260 389 -236 365 -260 b 269 -222 311 -260 281 -243 l 172 -253 b 335 -361 193 -312 264 -361 b 490 -207 422 -361 490 -293 b 330 -80 490 -122 418 -64 l 370 -10 b 578 212 500 5 578 94 z "},"ș":{"ha":623,"x_min":0,"x_max":0,"o":"m 326 -14 b 578 212 483 -14 578 82 b 365 444 578 351 464 406 b 290 502 314 465 290 476 b 345 542 290 524 307 542 b 453 491 391 542 432 517 l 564 616 b 330 708 512 668 427 708 b 71 486 172 708 71 604 b 290 271 71 347 210 300 b 373 205 352 247 373 229 b 313 161 373 177 349 161 b 196 234 276 161 227 175 l 33 153 b 326 -14 75 45 203 -14 z m 238 -347 l 420 -83 l 229 -83 l 132 -347 z "},"ß":{"ha":984,"x_min":0,"x_max":0,"o":"m 764 547 b 840 743 813 599 840 667 b 490 1042 840 915 694 1042 b 113 712 276 1042 113 903 l 113 0 l 333 0 l 333 712 b 493 849 333 792 403 849 b 632 740 573 849 632 804 b 503 618 632 674 573 618 l 484 618 l 484 438 l 533 438 b 679 304 615 438 679 377 b 569 196 679 238 625 198 l 446 196 l 446 0 l 613 0 b 899 290 776 -10 899 122 b 764 547 899 396 847 488 z "},"t":{"ha":556,"x_min":0,"x_max":0,"o":"m 521 523 l 521 694 l 356 694 l 356 962 l 135 962 l 135 694 l 19 694 l 19 523 l 135 523 l 135 248 b 408 -14 135 101 260 -14 b 519 9 455 -14 502 -3 l 519 181 l 436 181 b 356 274 389 181 356 217 l 356 523 z "},"ŧ":{"ha":556,"x_min":0,"x_max":0,"o":"m 521 523 l 521 694 l 356 694 l 356 962 l 135 962 l 135 694 l 19 694 l 19 523 l 135 523 l 135 406 l 28 406 l 28 288 l 135 288 l 135 248 b 408 -14 135 101 260 -14 b 519 9 455 -14 502 -3 l 519 181 l 436 181 b 356 274 389 181 356 217 l 356 288 l 514 288 l 514 406 l 356 406 l 356 523 z "},"ť":{"ha":684,"x_min":0,"x_max":0,"o":"m 543 1167 l 425 747 l 540 747 l 727 1167 z m 356 962 l 135 962 l 135 694 l 19 694 l 19 523 l 135 523 l 135 248 b 408 -14 135 101 260 -14 b 519 9 455 -14 502 -3 l 519 181 l 436 181 b 356 274 389 181 356 217 l 356 523 l 521 523 l 521 694 l 356 694 z "},"ţ":{"ha":556,"x_min":0,"x_max":0,"o":"m 411 -80 l 451 -10 b 519 9 481 -7 507 0 l 519 181 l 436 181 b 356 274 389 181 356 217 l 356 523 l 521 523 l 521 694 l 356 694 l 356 962 l 135 962 l 135 694 l 19 694 l 19 523 l 135 523 l 135 248 b 351 -9 135 120 229 17 l 285 -128 l 363 -174 b 470 -207 422 -142 470 -158 b 417 -260 470 -236 446 -260 b 351 -222 392 -260 363 -243 l 253 -253 b 417 -361 274 -312 345 -361 b 571 -207 503 -361 571 -293 b 411 -80 571 -122 500 -64 z "},"ț":{"ha":556,"x_min":0,"x_max":0,"o":"m 521 523 l 521 694 l 356 694 l 356 962 l 135 962 l 135 694 l 19 694 l 19 523 l 135 523 l 135 248 b 408 -14 135 101 260 -14 b 519 9 455 -14 502 -3 l 519 181 l 436 181 b 356 274 389 181 356 217 l 356 523 z m 214 -347 l 319 -347 l 502 -83 l 311 -83 z "},"u":{"ha":828,"x_min":0,"x_max":0,"o":"m 413 -14 b 740 266 623 -14 740 95 l 740 694 l 519 694 l 519 295 b 413 182 519 229 474 182 b 309 295 354 182 309 229 l 309 694 l 87 694 l 87 266 b 413 -14 87 95 203 -14 z "},"ú":{"ha":828,"x_min":0,"x_max":0,"o":"m 333 783 l 479 783 l 696 1042 l 486 1042 z m 413 -14 b 740 266 623 -14 740 95 l 740 694 l 519 694 l 519 295 b 413 182 519 229 474 182 b 309 295 354 182 309 229 l 309 694 l 87 694 l 87 266 b 413 -14 87 95 203 -14 z "},"ǔ":{"ha":828,"x_min":0,"x_max":0,"o":"m 351 783 l 484 783 l 656 1042 l 517 1042 l 418 906 l 319 1042 l 181 1042 z m 413 -14 b 740 266 623 -14 740 95 l 740 694 l 519 694 l 519 295 b 413 182 519 229 474 182 b 309 295 354 182 309 229 l 309 694 l 87 694 l 87 266 b 413 -14 87 95 203 -14 z "},"û":{"ha":828,"x_min":0,"x_max":0,"o":"m 319 783 l 418 918 l 517 783 l 656 783 l 484 1042 l 351 1042 l 181 783 z m 413 -14 b 740 266 623 -14 740 95 l 740 694 l 519 694 l 519 295 b 413 182 519 229 474 182 b 309 295 354 182 309 229 l 309 694 l 87 694 l 87 266 b 413 -14 87 95 203 -14 z "},"ü":{"ha":828,"x_min":0,"x_max":0,"o":"m 273 816 b 378 920 330 816 378 865 b 273 1024 378 979 330 1024 b 168 920 217 1024 168 979 b 273 816 168 865 217 816 z m 564 816 b 668 920 623 816 668 865 b 564 1024 668 979 623 1024 b 460 920 509 1024 460 979 b 564 816 460 865 509 816 z m 413 -14 b 740 266 623 -14 740 95 l 740 694 l 519 694 l 519 295 b 413 182 519 229 474 182 b 309 295 354 182 309 229 l 309 694 l 87 694 l 87 266 b 413 -14 87 95 203 -14 z "},"ù":{"ha":828,"x_min":0,"x_max":0,"o":"m 503 783 l 351 1042 l 141 1042 l 358 783 z m 413 -14 b 740 266 623 -14 740 95 l 740 694 l 519 694 l 519 295 b 413 182 519 229 474 182 b 309 295 354 182 309 229 l 309 694 l 87 694 l 87 266 b 413 -14 87 95 203 -14 z "},"ű":{"ha":828,"x_min":0,"x_max":0,"o":"m 201 783 l 345 783 l 561 1042 l 352 1042 z m 481 783 l 625 783 l 840 1042 l 632 1042 z m 413 -14 b 740 266 623 -14 740 95 l 740 694 l 519 694 l 519 295 b 413 182 519 229 474 182 b 309 295 354 182 309 229 l 309 694 l 87 694 l 87 266 b 413 -14 87 95 203 -14 z "},"ū":{"ha":828,"x_min":0,"x_max":0,"o":"m 210 806 l 628 806 l 628 944 l 210 944 z m 413 -14 b 740 266 623 -14 740 95 l 740 694 l 519 694 l 519 295 b 413 182 519 229 474 182 b 309 295 354 182 309 229 l 309 694 l 87 694 l 87 266 b 413 -14 87 95 203 -14 z "},"ų":{"ha":828,"x_min":0,"x_max":0,"o":"m 740 266 l 740 694 l 519 694 l 519 295 b 413 182 519 229 474 182 b 309 295 354 182 309 229 l 309 694 l 87 694 l 87 266 b 375 -12 87 106 189 0 b 319 -139 342 -47 319 -87 b 495 -314 319 -231 382 -306 b 715 -229 575 -319 658 -288 l 646 -132 b 531 -207 620 -179 576 -207 b 455 -120 484 -207 455 -177 b 557 7 455 -61 495 -26 b 634 45 585 17 611 30 b 740 266 703 94 740 170 z "},"ů":{"ha":828,"x_min":0,"x_max":0,"o":"m 418 750 b 585 920 510 750 585 826 b 418 1087 585 1012 510 1087 b 248 920 325 1087 248 1012 b 418 750 248 826 325 750 z m 418 840 b 342 920 373 840 342 872 b 418 1000 342 962 373 1000 b 497 920 462 1000 497 962 b 418 840 497 872 462 840 z m 413 -14 b 740 266 623 -14 740 95 l 740 694 l 519 694 l 519 295 b 413 182 519 229 474 182 b 309 295 354 182 309 229 l 309 694 l 87 694 l 87 266 b 413 -14 87 95 203 -14 z "},"v":{"ha":750,"x_min":0,"x_max":0,"o":"m 521 694 l 375 238 l 227 694 l -9 694 l 269 0 l 477 0 l 759 694 z "},"w":{"ha":1188,"x_min":0,"x_max":0,"o":"m 948 694 l 830 233 l 681 694 l 507 694 l 359 234 l 243 694 l -9 694 l 231 0 l 464 0 l 594 392 l 724 0 l 958 0 l 1194 694 z "},"ẃ":{"ha":1188,"x_min":0,"x_max":0,"o":"m 873 1042 l 663 1042 l 510 783 l 656 783 z m 948 694 l 830 233 l 681 694 l 507 694 l 359 234 l 243 694 l -9 694 l 231 0 l 464 0 l 594 392 l 724 0 l 958 0 l 1194 694 z "},"ŵ":{"ha":1188,"x_min":0,"x_max":0,"o":"m 595 918 l 694 783 l 833 783 l 661 1042 l 528 1042 l 358 783 l 497 783 z m 948 694 l 830 233 l 681 694 l 507 694 l 359 234 l 243 694 l -9 694 l 231 0 l 464 0 l 594 392 l 724 0 l 958 0 l 1194 694 z "},"ẅ":{"ha":1188,"x_min":0,"x_max":0,"o":"m 450 816 b 556 920 507 816 556 865 b 450 1024 556 979 507 1024 b 345 920 394 1024 345 979 b 450 816 345 865 394 816 z m 741 816 b 845 920 800 816 845 865 b 741 1024 845 979 800 1024 b 637 920 686 1024 637 979 b 741 816 637 865 686 816 z m 948 694 l 830 233 l 681 694 l 507 694 l 359 234 l 243 694 l -9 694 l 231 0 l 464 0 l 594 392 l 724 0 l 958 0 l 1194 694 z "},"ẁ":{"ha":1188,"x_min":0,"x_max":0,"o":"m 681 783 l 528 1042 l 318 1042 l 535 783 z m 948 694 l 830 233 l 681 694 l 507 694 l 359 234 l 243 694 l -9 694 l 231 0 l 464 0 l 594 392 l 724 0 l 958 0 l 1194 694 z "},"x":{"ha":835,"x_min":0,"x_max":0,"o":"m 844 694 l 578 694 l 417 503 l 255 694 l -9 694 l 285 347 l -9 0 l 259 0 l 418 189 l 578 0 l 844 0 l 550 345 z "},"y":{"ha":788,"x_min":0,"x_max":0,"o":"m 566 694 l 396 234 l 222 694 l -9 694 l 281 -16 l 118 -417 l 351 -417 l 795 694 z "},"ý":{"ha":788,"x_min":0,"x_max":0,"o":"m 670 1042 l 460 1042 l 307 783 l 453 783 z m 566 694 l 396 234 l 222 694 l -9 694 l 281 -16 l 118 -417 l 351 -417 l 795 694 z "},"ŷ":{"ha":788,"x_min":0,"x_max":0,"o":"m 392 918 l 491 783 l 630 783 l 458 1042 l 325 1042 l 155 783 l 293 783 z m 566 694 l 396 234 l 222 694 l -9 694 l 281 -16 l 118 -417 l 351 -417 l 795 694 z "},"ÿ":{"ha":788,"x_min":0,"x_max":0,"o":"m 247 816 b 352 920 304 816 352 865 b 247 1024 352 979 304 1024 b 142 920 191 1024 142 979 b 247 816 142 865 191 816 z m 538 816 b 642 920 597 816 642 865 b 538 1024 642 979 597 1024 b 434 920 483 1024 434 979 b 538 816 434 865 483 816 z m 566 694 l 396 234 l 222 694 l -9 694 l 281 -16 l 118 -417 l 351 -417 l 795 694 z "},"ỳ":{"ha":788,"x_min":0,"x_max":0,"o":"m 477 783 l 325 1042 l 115 1042 l 332 783 z m 566 694 l 396 234 l 222 694 l -9 694 l 281 -16 l 118 -417 l 351 -417 l 795 694 z "},"z":{"ha":679,"x_min":0,"x_max":0,"o":"m 655 694 l 73 694 l 73 510 l 326 510 l 36 0 l 644 0 l 644 184 l 363 184 z "},"ź":{"ha":679,"x_min":0,"x_max":0,"o":"m 639 1042 l 429 1042 l 276 783 l 422 783 z m 655 694 l 73 694 l 73 510 l 326 510 l 36 0 l 644 0 l 644 184 l 363 184 z "},"ž":{"ha":679,"x_min":0,"x_max":0,"o":"m 427 783 l 599 1042 l 460 1042 l 361 906 l 262 1042 l 123 1042 l 293 783 z m 655 694 l 73 694 l 73 510 l 326 510 l 36 0 l 644 0 l 644 184 l 363 184 z "},"ż":{"ha":679,"x_min":0,"x_max":0,"o":"m 361 783 b 484 905 429 783 484 839 b 361 1026 484 972 429 1026 b 240 905 295 1026 240 972 b 361 783 240 839 295 783 z m 655 694 l 73 694 l 73 510 l 326 510 l 36 0 l 644 0 l 644 184 l 363 184 z "},"ﬁ":{"ha":957,"x_min":0,"x_max":0,"o":"m 358 903 b 436 995 358 960 389 995 l 519 995 l 519 1168 b 408 1189 502 1181 455 1189 b 135 929 260 1189 135 1076 l 135 694 l 19 694 l 19 523 l 135 523 l 135 0 l 358 0 l 358 523 l 523 523 l 523 694 l 358 694 z m 740 811 b 861 932 806 811 861 866 b 740 1054 861 1000 806 1054 b 618 932 674 1054 618 1000 b 740 811 618 866 674 811 z m 628 0 l 849 0 l 849 694 l 628 694 z "},"ﬂ":{"ha":950,"x_min":0,"x_max":0,"o":"m 358 903 b 436 995 358 960 389 995 l 519 995 l 519 1168 b 408 1189 502 1181 455 1189 b 135 929 260 1189 135 1076 l 135 694 l 19 694 l 19 523 l 135 523 l 135 0 l 358 0 l 358 523 l 523 523 l 523 694 l 358 694 z m 625 1189 l 625 0 l 847 0 l 847 1189 z "},"ª":{"ha":564,"x_min":0,"x_max":0,"o":"m 391 1042 l 391 977 b 243 1050 358 1023 306 1050 b 36 833 128 1050 36 953 b 243 616 36 712 128 616 b 391 689 306 616 358 644 l 391 625 l 497 625 l 497 1042 z m 266 708 b 141 833 196 708 141 764 b 266 958 141 903 196 958 b 391 833 335 958 391 903 b 266 708 391 764 335 708 z "},"º":{"ha":531,"x_min":0,"x_max":0,"o":"m 266 616 b 497 833 394 616 497 712 b 266 1050 497 953 394 1050 b 36 833 137 1050 36 953 b 266 616 36 712 137 616 z m 266 708 b 141 833 196 708 141 764 b 266 958 141 903 196 958 b 391 833 335 958 391 903 b 266 708 391 764 335 708 z "},"Δ":{"ha":1120,"x_min":0,"x_max":0,"o":"m 688 1042 l 431 1042 l 12 0 l 1106 0 z m 337 198 l 561 785 l 783 198 z "},"Ω":{"ha":1200,"x_min":0,"x_max":0,"o":"m 71 0 l 535 0 l 535 139 b 337 523 429 191 337 335 b 606 859 337 729 446 859 b 861 524 767 859 861 720 b 667 139 861 333 776 201 l 667 0 l 1127 0 l 1127 184 l 965 184 l 965 189 b 1106 568 1043 273 1106 422 b 602 1047 1106 816 927 1047 b 94 568 293 1047 94 837 b 229 189 94 403 168 257 l 229 184 l 71 184 z "},"μ":{"ha":915,"x_min":0,"x_max":0,"o":"m 569 694 l 569 297 b 438 179 569 231 512 179 b 319 297 372 179 319 231 l 319 694 l 99 694 l 99 -347 l 260 -347 l 260 10 b 372 -14 295 -5 332 -14 b 569 73 450 -14 519 19 l 569 0 l 790 0 l 790 694 z "},"π":{"ha":991,"x_min":0,"x_max":0,"o":"m 94 0 l 295 0 b 398 608 351 137 392 439 l 627 608 l 627 220 b 655 0 627 115 634 31 l 854 0 b 835 233 842 49 835 123 l 835 608 l 951 608 l 967 771 l 274 771 b 7 720 132 771 47 752 l 30 592 b 194 608 68 602 118 608 b 94 0 191 439 146 163 z "},"⁄":{"ha":819,"x_min":0,"x_max":0,"o":"m -38 0 l 132 0 l 858 1042 l 688 1042 z "},"½":{"ha":1424,"x_min":0,"x_max":0,"o":"m 297 347 l 297 1042 l 43 1042 l 43 911 l 148 911 l 148 347 z m 915 1040 l 189 -2 l 359 -2 l 1085 1040 z m 1127 128 l 1236 264 b 1356 505 1328 378 1356 424 b 1142 703 1356 620 1262 703 b 917 483 1016 703 905 613 l 1061 483 b 1135 571 1054 538 1089 571 b 1212 491 1170 571 1212 554 b 1130 347 1212 460 1203 439 l 859 -2 l 1368 -2 l 1368 128 z "},"¼":{"ha":1457,"x_min":0,"x_max":0,"o":"m 297 347 l 297 1042 l 43 1042 l 43 911 l 148 911 l 148 347 z m 939 1038 l 214 -3 l 384 -3 l 1109 1038 z m 1387 278 l 1330 278 l 1330 694 l 1142 694 l 852 146 l 1182 146 l 1182 0 l 1330 0 l 1330 146 l 1387 146 z m 1040 278 l 1182 561 l 1182 278 z "},"¾":{"ha":1488,"x_min":0,"x_max":0,"o":"m 536 568 b 319 767 536 698 443 767 l 542 1045 l 71 1045 l 71 915 l 290 915 l 95 660 l 304 660 b 391 571 354 660 391 625 b 300 481 391 519 356 481 b 219 545 257 481 219 509 l 71 543 b 300 342 71 431 175 342 b 536 568 434 342 536 443 z m 1016 1038 l 290 -3 l 460 -3 l 1186 1038 z m 1417 278 l 1359 278 l 1359 694 l 1172 694 l 882 146 l 1212 146 l 1212 0 l 1359 0 l 1359 146 l 1417 146 z m 1069 278 l 1212 561 l 1212 278 z "},"¹":{"ha":377,"x_min":0,"x_max":0,"o":"m 116 521 l 220 521 l 220 1042 l 43 1042 l 43 950 l 116 950 z "},"²":{"ha":512,"x_min":0,"x_max":0,"o":"m 252 641 l 330 740 b 417 913 396 823 417 854 b 262 1057 417 997 349 1057 b 99 898 172 1057 92 991 l 203 898 b 257 962 198 938 224 962 b 313 903 283 962 313 948 b 255 799 313 880 307 866 l 57 547 l 425 547 l 425 641 z "},"³":{"ha":514,"x_min":0,"x_max":0,"o":"m 264 839 l 425 1040 l 87 1040 l 87 946 l 245 946 l 104 762 l 253 762 b 316 698 290 762 316 736 b 252 632 316 660 292 632 b 193 679 220 632 193 653 l 87 677 b 252 531 87 595 161 531 b 422 694 349 531 422 604 b 264 839 422 788 354 839 z "},"*":{"ha":533,"x_min":0,"x_max":0,"o":"m 214 658 l 266 785 l 319 658 l 413 714 l 330 821 l 465 802 l 465 910 l 330 892 l 413 1000 l 319 1056 l 266 927 l 214 1056 l 122 1000 l 203 892 l 68 910 l 68 802 l 203 821 l 122 714 z "},"\\":{"ha":974,"x_min":0,"x_max":0,"o":"m 795 -417 l 1002 -417 l 179 1189 l -28 1189 z "},"·":{"ha":425,"x_min":0,"x_max":0,"o":"m 212 411 b 302 500 259 411 302 450 b 212 589 302 547 259 589 b 123 500 165 589 123 547 b 212 411 123 450 165 411 z "},"•":{"ha":872,"x_min":0,"x_max":0,"o":"m 436 181 b 719 464 589 181 719 306 b 436 748 719 618 589 748 b 151 464 283 748 151 618 b 436 181 151 306 283 181 z "},":":{"ha":500,"x_min":0,"x_max":0,"o":"m 250 464 b 372 587 316 464 372 519 b 250 708 372 653 316 708 b 128 587 184 708 128 653 b 250 464 128 519 184 464 z m 250 -14 b 372 108 316 -14 372 42 b 250 231 372 175 316 231 b 128 108 184 231 128 175 b 250 -14 128 42 184 -14 z "},",":{"ha":427,"x_min":0,"x_max":0,"o":"m 141 -247 l 384 182 l 170 182 l 5 -247 z "},"…":{"ha":1396,"x_min":0,"x_max":0,"o":"m 234 -14 b 363 113 304 -14 363 43 b 234 240 363 182 304 240 b 109 113 167 240 109 182 b 234 -14 109 43 167 -14 z m 701 -14 b 830 113 771 -14 830 43 b 701 240 830 182 771 240 b 576 113 634 240 576 182 b 701 -14 576 43 634 -14 z m 1168 -14 b 1297 113 1238 -14 1297 43 b 1168 240 1297 182 1238 240 b 1043 113 1101 240 1043 182 b 1168 -14 1043 43 1101 -14 z "},"!":{"ha":491,"x_min":0,"x_max":0,"o":"m 161 361 l 328 361 l 356 1068 l 135 1068 z m 245 -14 b 368 108 314 -14 368 42 b 245 231 368 175 314 231 b 123 108 179 231 123 175 b 245 -14 123 42 179 -14 z "},"¡":{"ha":491,"x_min":0,"x_max":0,"o":"m 245 450 b 368 573 314 450 368 505 b 245 694 368 639 314 694 b 123 573 179 694 123 639 b 245 450 123 505 179 450 z m 135 -417 l 356 -417 l 328 333 l 161 333 z "},"#":{"ha":1191,"x_min":0,"x_max":0,"o":"m 255 0 l 410 0 l 439 226 l 668 226 l 637 0 l 792 0 l 825 226 l 1019 226 l 1040 380 l 845 380 l 882 635 l 1076 635 l 1101 788 l 903 788 l 936 1019 l 781 1019 l 748 788 l 523 788 l 554 1019 l 399 1019 l 366 788 l 174 788 l 148 635 l 345 635 l 307 380 l 111 380 l 90 226 l 286 226 z m 464 380 l 498 635 l 727 635 l 689 380 z "},".":{"ha":470,"x_min":0,"x_max":0,"o":"m 234 -14 b 363 113 304 -14 363 43 b 234 240 363 182 304 240 b 109 113 167 240 109 182 b 234 -14 109 43 167 -14 z "},"?":{"ha":906,"x_min":0,"x_max":0,"o":"m 378 314 l 576 314 l 576 413 b 823 760 576 542 823 469 b 477 1083 823 941 672 1083 b 130 714 262 1083 109 922 l 325 714 b 477 892 307 813 373 892 b 630 760 563 892 630 833 b 378 401 630 550 378 694 z m 483 -14 b 604 108 550 -14 604 40 b 483 231 604 175 550 231 b 359 108 415 231 359 175 b 483 -14 359 40 415 -14 z "},"¿":{"ha":915,"x_min":0,"x_max":0,"o":"m 424 479 b 545 601 491 479 545 531 b 424 722 545 668 491 722 b 302 601 356 722 302 668 b 424 479 302 531 356 479 z m 429 -361 b 776 10 644 -361 797 -198 l 580 10 b 429 -170 599 -90 531 -170 b 276 -36 344 -170 276 -111 b 528 323 276 174 528 28 l 528 392 l 330 392 l 330 311 b 82 -36 330 181 82 253 b 429 -361 82 -219 234 -361 z "},"\"":{"ha":755,"x_min":0,"x_max":0,"o":"m 151 583 l 304 583 l 332 1056 l 123 1056 z m 453 583 l 606 583 l 632 1056 l 425 1056 z "},"'":{"ha":455,"x_min":0,"x_max":0,"o":"m 151 639 l 304 639 l 332 1056 l 123 1056 z "},";":{"ha":514,"x_min":0,"x_max":0,"o":"m 255 464 b 377 587 321 464 377 519 b 255 708 377 653 321 708 b 134 587 189 708 134 653 b 255 464 134 519 189 464 z m 172 -247 l 415 182 l 201 182 l 36 -247 z "},"/":{"ha":974,"x_min":0,"x_max":0,"o":"m -28 -417 l 179 -417 l 1002 1189 l 795 1189 z "},"_":{"ha":943,"x_min":0,"x_max":0,"o":"m 54 -151 l 887 -151 l 887 0 l 54 0 z "},"{":{"ha":517,"x_min":0,"x_max":0,"o":"m 352 -455 l 453 -455 l 453 -326 b 339 -257 352 -326 339 -314 l 339 123 b 266 372 339 236 319 314 b 339 620 319 429 339 507 l 339 990 b 453 1073 339 1080 365 1073 l 453 1200 l 352 1200 b 172 976 250 1200 172 1101 l 172 641 b 68 436 172 491 153 472 l 68 307 b 172 102 155 271 172 252 l 172 -233 b 352 -455 172 -358 250 -455 z "},"}":{"ha":517,"x_min":0,"x_max":0,"o":"m 64 -455 l 165 -455 b 344 -233 267 -455 344 -358 l 344 102 b 448 307 344 252 363 271 l 448 436 b 344 641 363 472 344 491 l 344 976 b 165 1200 344 1101 267 1200 l 64 1200 l 64 1073 b 177 990 153 1073 177 1080 l 177 620 b 252 372 177 507 198 429 b 177 123 198 314 177 236 l 177 -257 b 64 -326 177 -314 165 -326 z "},"[":{"ha":571,"x_min":0,"x_max":0,"o":"m 102 -347 l 474 -347 l 474 -226 l 295 -226 l 295 1104 l 474 1104 l 474 1226 l 102 1226 z "},"]":{"ha":571,"x_min":0,"x_max":0,"o":"m 97 -347 l 467 -347 l 467 1226 l 97 1226 l 97 1104 l 276 1104 l 276 -226 l 97 -226 z "},"(":{"ha":601,"x_min":0,"x_max":0,"o":"m 526 -411 l 526 -253 b 290 406 394 -252 290 -90 b 526 1071 290 906 394 1071 l 526 1229 b 95 406 285 1229 95 1019 b 526 -411 95 -203 285 -411 z "},")":{"ha":601,"x_min":0,"x_max":0,"o":"m 75 -411 b 503 406 316 -411 503 -203 b 75 1229 503 1019 316 1229 l 75 1071 b 311 406 207 1071 311 906 b 75 -253 311 -90 207 -252 z "},"—":{"ha":1389,"x_min":0,"x_max":0,"o":"m 0 285 l 1389 285 l 1389 438 l 0 438 z "},"–":{"ha":911,"x_min":0,"x_max":0,"o":"m 109 285 l 804 285 l 804 438 l 109 438 z "},"-":{"ha":703,"x_min":0,"x_max":0,"o":"m 109 285 l 595 285 l 595 438 l 109 438 z "},"­":{"ha":786,"x_min":0,"x_max":0,"o":"m 109 285 l 595 285 l 595 438 l 109 438 z "},"«":{"ha":1024,"x_min":0,"x_max":0,"o":"m 365 132 l 538 132 l 326 387 l 538 642 l 365 642 l 153 387 z m 696 132 l 872 132 l 661 387 l 872 642 l 696 642 l 484 387 z "},"»":{"ha":1024,"x_min":0,"x_max":0,"o":"m 151 132 l 325 132 l 536 387 l 325 642 l 151 642 l 363 387 z m 484 132 l 660 132 l 870 387 l 660 642 l 484 642 l 694 387 z "},"‹":{"ha":550,"x_min":0,"x_max":0,"o":"m 281 132 l 455 132 l 243 387 l 455 642 l 281 642 l 69 387 z "},"›":{"ha":550,"x_min":0,"x_max":0,"o":"m 95 132 l 269 132 l 481 387 l 269 642 l 95 642 l 307 387 z "},"„":{"ha":708,"x_min":0,"x_max":0,"o":"m 174 -271 l 361 149 l 177 149 l 59 -271 z m 481 -271 l 668 149 l 484 149 l 366 -271 z "},"“":{"ha":727,"x_min":0,"x_max":0,"o":"m 262 1056 l 75 635 l 259 635 l 377 1056 z m 559 1056 l 372 635 l 556 635 l 674 1056 z "},"”":{"ha":696,"x_min":0,"x_max":0,"o":"m 155 722 l 342 1142 l 158 1142 l 40 722 z m 453 722 l 641 1142 l 457 1142 l 339 722 z "},"‘":{"ha":378,"x_min":0,"x_max":0,"o":"m 236 1056 l 49 635 l 233 635 l 351 1056 z "},"’":{"ha":326,"x_min":0,"x_max":0,"o":"m 182 646 l 370 1066 l 186 1066 l 68 646 z "},"‚":{"ha":394,"x_min":0,"x_max":0,"o":"m 174 -271 l 361 149 l 177 149 l 59 -271 z "}," ":{"ha":417,"x_min":0,"x_max":0,"o":""},"¢":{"ha":694,"x_min":0,"x_max":0,"o":"m 453 655 b 599 613 505 655 561 644 l 599 823 b 470 847 559 837 516 845 l 470 974 l 342 974 l 342 833 b 64 486 181 788 64 651 b 342 139 64 321 181 184 l 342 -2 l 470 -2 l 470 125 b 599 149 516 127 559 135 l 599 361 b 453 318 561 328 505 318 b 286 486 359 318 286 392 b 453 655 286 580 359 655 z "},"¤":{"ha":936,"x_min":0,"x_max":0,"o":"m 215 134 l 292 210 b 642 210 398 146 536 146 l 719 134 l 835 255 l 762 328 b 762 681 826 436 826 573 l 835 753 l 717 872 l 642 797 b 293 797 536 863 399 861 l 217 873 l 101 752 l 174 679 b 174 330 109 573 109 436 l 101 255 z m 340 378 b 342 628 273 446 274 559 b 592 628 411 698 524 698 b 594 378 661 561 661 448 b 340 378 524 309 411 309 z "},"$":{"ha":823,"x_min":0,"x_max":0,"o":"m 783 295 b 304 766 783 681 304 585 b 405 852 304 825 349 852 b 575 762 464 852 523 819 l 727 908 b 512 1042 672 972 597 1019 l 512 1153 l 316 1153 l 316 1045 b 73 748 186 1016 73 918 b 554 297 73 394 554 479 b 425 201 554 240 505 201 b 217 337 330 201 255 255 l 28 219 b 316 -2 82 115 184 30 l 316 -111 l 512 -111 l 512 -5 b 783 295 665 24 783 132 z "},"€":{"ha":1021,"x_min":0,"x_max":0,"o":"m 337 358 l 686 358 l 719 467 l 300 467 b 297 521 299 484 297 502 b 300 575 297 540 299 557 l 752 575 l 783 684 l 337 684 b 634 859 394 790 503 859 b 819 799 694 859 766 837 l 878 990 b 634 1056 799 1031 710 1056 b 123 684 391 1056 191 901 l 16 684 l 16 575 l 101 575 b 99 521 101 557 99 538 b 101 467 99 503 101 484 l 16 467 l 16 358 l 123 358 b 634 -14 191 141 391 -14 b 866 47 707 -14 792 9 l 866 278 b 634 182 807 222 712 182 b 337 358 503 182 394 252 z "},"ƒ":{"ha":700,"x_min":0,"x_max":0,"o":"m 575 899 b 644 878 597 899 627 892 l 661 1030 b 552 1056 646 1042 602 1056 b 250 802 408 1056 273 948 l 233 694 l 116 694 l 90 530 l 207 530 l 68 -347 l 266 -347 l 405 530 l 590 530 l 616 694 l 431 694 l 443 773 b 575 899 455 851 503 899 z "},"£":{"ha":913,"x_min":0,"x_max":0,"o":"m 325 153 l 325 434 l 583 434 l 583 575 l 325 575 l 325 701 b 505 889 325 818 396 889 b 681 714 597 889 684 813 l 842 783 b 505 1056 813 939 661 1056 b 160 701 304 1056 160 908 l 160 575 l 49 575 l 49 434 l 160 434 l 160 0 l 852 0 l 852 153 z "},"¥":{"ha":1005,"x_min":0,"x_max":0,"o":"m 950 1042 l 747 1042 l 503 658 l 259 1042 l 54 1042 l 389 535 l 168 535 l 168 398 l 406 398 l 406 299 l 170 299 l 170 170 l 406 170 l 406 0 l 599 0 l 599 170 l 837 170 l 837 299 l 599 299 l 599 398 l 837 398 l 837 535 l 615 535 z "},"≈":{"ha":852,"x_min":0,"x_max":0,"o":"m 566 434 b 785 708 707 434 780 552 l 634 708 b 554 583 630 627 599 583 b 488 625 519 583 502 608 b 304 724 432 696 378 724 b 66 444 153 724 69 611 l 219 444 b 302 571 220 517 247 569 b 361 542 318 571 335 568 b 566 434 392 510 453 434 z m 566 123 b 785 398 707 123 780 243 l 634 398 b 554 271 630 314 599 271 b 488 314 519 271 500 299 b 304 415 429 387 375 415 b 66 132 156 415 69 304 l 219 132 b 302 260 220 207 245 257 b 361 231 328 260 342 252 b 566 123 391 200 453 123 z "},"~":{"ha":819,"x_min":0,"x_max":0,"o":"m 550 208 b 767 483 689 208 783 328 l 618 483 b 536 356 623 403 583 356 b 470 399 505 356 486 378 b 290 498 422 465 375 498 b 50 219 132 498 42 384 l 201 219 b 286 345 203 281 226 345 b 345 316 302 345 319 340 b 550 208 377 286 438 208 z "},"÷":{"ha":998,"x_min":0,"x_max":0,"o":"m 498 554 b 608 661 556 554 608 601 b 498 771 608 719 556 771 b 391 661 441 771 391 719 b 498 554 391 601 441 554 z m 82 326 l 915 326 l 915 438 l 82 438 z m 498 -7 b 608 102 556 -7 608 42 b 498 210 608 160 556 210 b 391 102 441 210 391 160 b 498 -7 391 42 441 -7 z "},"∅":{"ha":1134,"x_min":0,"x_max":0,"o":"m 887 667 l 948 727 l 891 786 l 830 726 b 566 819 757 785 667 819 b 151 405 337 819 151 634 b 247 141 151 304 188 212 l 186 80 l 243 23 l 304 83 b 566 -10 375 24 467 -10 b 983 405 795 -10 983 175 b 887 667 983 503 948 595 z m 326 405 b 566 646 326 538 432 646 b 707 602 618 646 667 630 l 370 264 b 326 405 342 304 326 352 z m 566 163 b 427 207 514 163 467 179 l 764 543 b 807 405 792 503 807 457 b 566 163 807 269 701 163 z "},"=":{"ha":998,"x_min":0,"x_max":0,"o":"m 82 438 l 915 438 l 915 576 l 82 576 z m 82 160 l 915 160 l 915 299 l 82 299 z "},">":{"ha":1014,"x_min":0,"x_max":0,"o":"m 123 1005 l 123 825 l 724 523 l 123 219 l 123 36 l 891 424 l 891 620 z "},"≥":{"ha":1097,"x_min":0,"x_max":0,"o":"m 165 1033 l 165 852 l 748 606 l 165 358 l 165 175 l 932 507 l 932 703 z m 165 0 l 932 0 l 932 125 l 165 125 z "},"∞":{"ha":1116,"x_min":0,"x_max":0,"o":"m 304 172 b 559 302 385 172 476 219 b 813 172 642 219 731 172 b 1035 405 946 172 1030 259 b 813 635 1030 550 946 635 b 559 507 731 635 642 590 b 304 635 476 589 385 635 b 82 405 177 635 87 542 b 304 172 87 267 177 172 z m 304 311 b 220 405 259 311 220 349 b 304 497 220 460 259 497 b 465 405 349 497 406 465 b 304 311 406 344 349 311 z m 813 311 b 651 405 767 311 710 345 b 813 497 710 464 767 497 b 896 405 859 497 896 464 b 813 311 896 345 859 311 z "},"∫":{"ha":675,"x_min":0,"x_max":0,"o":"m 163 -262 b 321 -123 241 -262 309 -203 l 481 891 b 507 915 484 906 493 915 b 517 845 531 915 524 899 l 625 845 b 526 1030 667 948 616 1030 b 366 891 448 1030 380 969 l 207 -123 b 184 -148 203 -139 196 -148 b 170 -80 158 -148 163 -134 l 63 -80 b 163 -262 23 -181 71 -262 z "},"<":{"ha":1014,"x_min":0,"x_max":0,"o":"m 891 1005 l 123 620 l 123 424 l 891 36 l 891 219 l 290 523 l 891 825 z "},"≤":{"ha":1097,"x_min":0,"x_max":0,"o":"m 932 1033 l 165 703 l 165 507 l 932 175 l 932 358 l 349 606 l 932 852 z m 165 0 l 932 0 l 932 125 l 165 125 z "},"¬":{"ha":1141,"x_min":0,"x_max":0,"o":"m 878 132 l 1017 132 l 1017 628 l 123 628 l 123 488 l 878 488 z "},"µ":{"ha":868,"x_min":0,"x_max":0,"o":"m 587 694 l 587 290 b 438 153 587 214 521 153 b 300 290 361 153 300 214 l 300 694 l 109 694 l 109 -347 l 250 -347 l 250 21 b 382 -14 288 -2 333 -14 b 587 80 464 -14 535 23 l 587 0 l 778 0 l 778 694 z "},"−":{"ha":965,"x_min":0,"x_max":0,"o":"m 82 359 l 884 359 l 884 507 l 82 507 z "},"×":{"ha":1064,"x_min":0,"x_max":0,"o":"m 911 675 l 793 795 l 547 550 l 302 795 l 182 675 l 427 431 l 182 186 l 302 66 l 547 311 l 793 66 l 911 186 l 667 431 z "},"≠":{"ha":998,"x_min":0,"x_max":0,"o":"m 915 438 l 915 576 l 743 576 l 856 708 l 736 708 l 623 576 l 82 576 l 82 438 l 503 438 l 385 299 l 82 299 l 82 160 l 266 160 l 141 14 l 260 14 l 385 160 l 915 160 l 915 299 l 505 299 l 623 438 z "},"∂":{"ha":825,"x_min":0,"x_max":0,"o":"m 234 990 l 234 837 b 526 688 359 903 470 833 b 106 429 358 731 184 637 b 380 0 12 182 132 0 b 757 455 592 0 755 198 b 234 990 759 816 526 1057 z m 563 455 b 380 139 561 285 476 139 b 285 380 285 139 238 255 b 559 531 345 542 446 594 b 563 455 563 507 563 481 z "},"%":{"ha":1200,"x_min":0,"x_max":0,"o":"m 302 543 b 528 799 427 543 528 658 b 302 1056 528 941 427 1056 b 73 799 175 1056 73 941 b 302 543 73 658 175 543 z m 135 0 l 363 0 l 1063 1042 l 833 1042 z m 302 708 b 240 799 269 708 240 748 b 302 891 240 851 269 891 b 363 799 332 891 363 851 b 302 708 363 748 332 708 z m 898 -14 b 1125 243 1024 -14 1125 101 b 898 498 1125 384 1024 498 b 670 243 771 498 670 384 b 898 -14 670 101 771 -14 z m 898 151 b 837 243 866 151 837 191 b 898 333 837 293 866 333 b 960 243 929 333 960 293 b 898 151 960 191 929 151 z "},"‰":{"ha":1719,"x_min":0,"x_max":0,"o":"m 302 543 b 528 799 427 543 528 658 b 302 1056 528 941 427 1056 b 73 799 175 1056 73 941 b 302 543 73 658 175 543 z m 135 0 l 363 0 l 1063 1042 l 833 1042 z m 302 708 b 240 799 269 708 240 748 b 302 891 240 851 269 891 b 363 799 332 891 363 851 b 302 708 363 748 332 708 z m 898 -14 b 1125 243 1024 -14 1125 101 b 898 498 1125 384 1024 498 b 670 243 771 498 670 384 b 898 -14 670 101 771 -14 z m 1422 -14 b 1651 243 1549 -14 1651 101 b 1422 498 1651 384 1549 498 b 1194 243 1295 498 1194 384 b 1422 -14 1194 101 1295 -14 z m 898 151 b 837 243 866 151 837 191 b 898 333 837 293 866 333 b 960 243 929 333 960 293 b 898 151 960 191 929 151 z m 1422 151 b 1361 243 1391 151 1361 191 b 1422 333 1361 293 1391 333 b 1483 243 1453 333 1483 293 b 1422 151 1483 191 1453 151 z "},"+":{"ha":1109,"x_min":0,"x_max":0,"o":"m 470 0 l 639 0 l 639 345 l 984 345 l 984 516 l 639 516 l 639 861 l 470 861 l 470 516 l 123 516 l 123 345 l 470 345 z "},"±":{"ha":1109,"x_min":0,"x_max":0,"o":"m 627 642 l 627 892 l 484 892 l 484 642 l 68 642 l 68 498 l 484 498 l 484 248 l 627 248 l 627 498 l 1042 498 l 1042 642 z m 68 0 l 1042 0 l 1042 128 l 68 128 z "},"∏":{"ha":1085,"x_min":0,"x_max":0,"o":"m 1017 976 l 68 976 l 68 825 l 156 825 l 156 -167 l 309 -167 l 309 825 l 778 825 l 778 -167 l 929 -167 l 929 825 l 1017 825 z "},"√":{"ha":1066,"x_min":0,"x_max":0,"o":"m 345 -108 l 472 -108 l 1010 1016 l 884 1069 l 422 106 l 295 491 l 95 491 l 95 352 l 196 352 z "},"∑":{"ha":1068,"x_min":0,"x_max":0,"o":"m 123 -163 l 944 -165 l 944 0 l 399 0 l 821 406 l 399 811 l 944 811 l 944 976 l 123 976 l 123 840 l 589 406 l 123 -30 z "},"◊":{"ha":1087,"x_min":0,"x_max":0,"o":"m 543 73 l 962 491 l 543 910 l 123 490 z m 543 313 l 365 490 l 543 668 l 720 491 z "},"":{"ha":1304,"x_min":0,"x_max":0,"o":"m 651 0 b 1179 528 943 0 1179 238 b 651 1056 1179 819 943 1056 b 123 528 361 1056 123 819 b 651 0 123 238 361 0 z m 651 50 b 174 528 389 50 174 266 b 651 1005 174 792 389 1005 b 1128 528 915 1005 1128 792 b 651 50 1128 266 915 50 z m 927 302 b 946 309 934 302 941 304 b 946 344 955 321 955 335 l 762 528 l 946 712 b 946 747 955 720 955 738 b 911 747 936 757 920 757 l 710 545 b 710 510 700 536 700 521 l 911 309 b 927 302 915 304 922 302 z m 375 302 b 399 326 389 302 399 313 l 399 729 b 375 753 399 743 389 753 b 351 729 361 753 351 743 l 351 326 b 375 302 351 313 361 302 z m 651 302 b 677 326 665 302 677 313 l 677 729 b 651 753 677 743 665 753 b 627 729 637 753 627 743 l 627 326 b 651 302 627 313 637 302 z m 450 503 l 576 503 b 601 528 590 503 601 514 b 576 552 601 542 590 552 l 450 552 b 425 528 436 552 425 542 b 450 503 425 514 436 503 z "},"|":{"ha":451,"x_min":0,"x_max":0,"o":"m 156 -208 l 293 -208 l 293 1042 l 156 1042 z "},"¦":{"ha":451,"x_min":0,"x_max":0,"o":"m 156 542 l 293 542 l 293 1042 l 156 1042 z m 156 -208 l 293 -208 l 293 292 l 156 292 z "},"@":{"ha":873,"x_min":0,"x_max":0,"o":"m 750 207 l 750 509 b 457 762 750 651 622 762 b 82 384 248 762 82 594 b 477 0 82 168 255 0 l 750 0 l 750 127 l 477 127 b 208 384 328 127 208 238 b 457 635 208 523 319 635 b 623 509 550 635 623 578 l 623 495 b 502 540 592 523 545 540 b 333 366 410 540 333 464 b 503 191 333 267 410 191 b 623 233 543 191 590 207 l 623 207 z m 557 297 b 481 366 514 297 481 326 b 557 436 481 406 514 436 b 623 401 585 436 609 422 l 623 332 b 557 297 609 311 585 297 z "},"&":{"ha":1007,"x_min":0,"x_max":0,"o":"m 969 606 l 856 606 l 856 755 l 634 755 l 634 606 l 493 606 b 349 736 413 606 349 663 b 457 845 349 802 403 842 l 634 845 l 634 1040 l 415 1040 b 127 752 250 1052 127 918 b 229 519 127 660 165 578 b 128 300 167 464 128 387 b 491 -2 128 125 288 -2 b 856 330 705 -2 856 139 l 856 422 l 969 422 z m 488 193 b 337 304 408 193 337 236 b 465 422 337 365 394 422 l 634 422 l 634 330 b 488 193 634 250 580 193 z "},"¶":{"ha":922,"x_min":0,"x_max":0,"o":"m 406 -208 l 516 -208 l 516 1042 l 385 1042 b 137 809 233 1042 137 962 b 385 576 137 658 233 576 l 406 576 z m 646 -208 l 757 -208 l 757 1042 l 646 1042 z "},"©":{"ha":1200,"x_min":0,"x_max":0,"o":"m 599 -14 b 1134 521 894 -14 1134 226 b 599 1056 1134 816 894 1056 b 64 521 306 1056 64 816 b 599 -14 64 226 306 -14 z m 599 102 b 181 521 365 102 181 286 b 599 939 181 755 365 939 b 1017 521 835 939 1017 755 b 599 102 1017 286 835 102 z m 601 269 b 854 474 740 269 833 354 l 701 474 b 601 405 686 432 648 406 b 491 519 536 406 491 455 b 601 632 491 583 536 632 b 701 564 648 632 686 606 l 854 564 b 601 767 833 684 740 767 b 344 519 446 767 344 663 b 601 269 344 375 446 269 z "},"®":{"ha":1200,"x_min":0,"x_max":0,"o":"m 599 1056 b 64 521 306 1056 64 816 b 599 -14 64 226 306 -14 b 1134 521 894 -14 1134 226 b 599 1056 1134 816 894 1056 z m 599 102 b 181 521 365 102 181 286 b 599 939 181 755 365 939 b 1017 521 835 939 1017 755 b 599 102 1017 286 835 102 z m 800 625 b 634 788 800 715 726 788 l 451 788 l 451 253 l 557 253 l 557 462 l 601 462 l 717 253 l 837 253 l 712 481 b 800 625 764 509 800 563 z m 557 682 l 634 682 b 693 625 667 682 693 656 b 634 568 693 592 665 568 l 557 568 z "},"§":{"ha":917,"x_min":0,"x_max":0,"o":"m 780 370 b 832 497 813 406 832 450 b 295 835 832 783 295 696 b 467 915 295 885 375 915 b 658 856 543 915 613 894 l 766 946 b 457 1056 698 1012 576 1056 b 134 826 295 1056 134 976 b 186 705 134 774 153 734 b 134 576 149 667 134 625 b 670 243 134 299 670 382 b 474 153 670 186 582 153 b 224 257 351 153 260 198 l 90 174 b 465 3 151 75 300 3 b 832 241 661 3 832 106 b 780 370 832 297 811 339 z m 295 582 b 325 632 295 601 306 618 b 670 498 479 583 670 580 b 641 444 670 479 660 460 b 295 582 486 495 295 498 z "},"™":{"ha":1160,"x_min":0,"x_max":0,"o":"m 54 950 l 175 950 l 175 556 l 283 556 l 283 950 l 406 950 l 406 1042 l 54 1042 z m 931 1042 l 774 813 l 622 1042 l 505 1042 l 505 556 l 611 556 l 611 877 l 774 635 l 938 877 l 938 556 l 1042 556 l 1042 1042 z "},"°":{"ha":675,"x_min":0,"x_max":0,"o":"m 337 684 b 524 870 441 684 524 766 b 337 1056 524 974 441 1056 b 151 870 234 1056 151 974 b 337 684 151 766 234 684 z m 337 788 b 255 870 292 788 255 823 b 337 951 255 917 292 951 b 420 870 384 951 420 917 b 337 788 420 823 384 788 z "},"℮":{"ha":1295,"x_min":0,"x_max":0,"o":"m 646 -12 b 1115 194 837 -12 1010 69 l 1031 194 b 648 17 938 87 802 17 b 283 175 505 17 377 80 b 271 208 276 184 271 196 l 271 500 b 280 505 271 503 274 505 l 1240 505 l 1240 519 b 646 1056 1240 816 976 1056 b 52 519 318 1056 52 816 b 646 -12 52 226 318 -12 z m 280 535 b 271 545 274 535 271 540 l 271 830 b 285 866 271 844 276 858 b 648 1024 378 962 507 1024 b 1009 872 788 1024 915 962 b 1023 837 1017 863 1023 849 l 1023 545 b 1017 535 1023 540 1021 535 z "},"ℓ":{"ha":839,"x_min":0,"x_max":0,"o":"m 472 -9 b 823 208 602 -9 734 49 l 736 295 b 523 155 689 224 611 155 b 377 306 444 155 380 208 l 375 352 b 705 872 580 530 705 691 b 469 1137 705 1014 634 1137 b 175 747 306 1137 175 1023 l 175 389 b 42 290 134 356 89 325 l 97 182 b 179 241 127 203 151 224 b 181 227 181 236 181 233 b 472 -9 205 95 290 -9 z m 375 531 l 375 771 b 477 998 375 948 429 998 b 566 873 542 998 566 948 b 375 531 566 769 486 648 z "},"^":{"ha":1050,"x_min":0,"x_max":0,"o":"m 1009 274 l 623 1042 l 427 1042 l 40 274 l 224 274 l 524 873 l 826 274 z "},"†":{"ha":950,"x_min":0,"x_max":0,"o":"m 769 694 l 540 694 l 540 931 l 401 931 l 401 694 l 179 694 l 179 556 l 401 556 l 401 -236 l 540 -236 l 540 556 l 769 556 z "},"‡":{"ha":950,"x_min":0,"x_max":0,"o":"m 769 556 l 769 694 l 540 694 l 540 931 l 401 931 l 401 694 l 179 694 l 179 556 l 401 556 l 401 151 l 179 151 l 179 12 l 401 12 l 401 -236 l 540 -236 l 540 12 l 769 12 l 769 151 l 540 151 l 540 556 z "},"̈":{"ha":0,"x_min":0,"x_max":0,"o":"m -481 816 b -375 920 -424 816 -375 865 b -481 1024 -375 979 -424 1024 b -585 920 -536 1024 -585 979 b -481 816 -585 865 -536 816 z m -189 816 b -85 920 -130 816 -85 865 b -189 1024 -85 979 -130 1024 b -293 920 -245 1024 -293 979 b -189 816 -293 865 -245 816 z "},"̇":{"ha":0,"x_min":0,"x_max":0,"o":"m -247 783 b -123 905 -179 783 -123 839 b -247 1026 -123 972 -179 1026 b -368 905 -312 1026 -368 972 b -247 783 -368 839 -312 783 z "},"̀":{"ha":0,"x_min":0,"x_max":0,"o":"m -35 783 l -187 1042 l -398 1042 l -181 783 z "},"́":{"ha":0,"x_min":0,"x_max":0,"o":"m -368 783 l -222 783 l -5 1042 l -215 1042 z "},"̋":{"ha":0,"x_min":0,"x_max":0,"o":"m -561 783 l -417 783 l -201 1042 l -410 1042 z m -281 783 l -137 783 l 78 1042 l -130 1042 z "},"̂":{"ha":0,"x_min":0,"x_max":0,"o":"m -411 783 l -312 918 l -214 783 l -75 783 l -247 1042 l -380 1042 l -550 783 z "},"̌":{"ha":0,"x_min":0,"x_max":0,"o":"m -394 783 l -260 783 l -89 1042 l -227 1042 l -326 906 l -425 1042 l -564 1042 z "},"̆":{"ha":0,"x_min":0,"x_max":0,"o":"m -491 771 b -238 1016 -340 771 -238 851 l -363 1016 b -491 896 -363 955 -411 896 b -620 1016 -569 896 -620 955 l -745 1016 b -491 771 -745 851 -641 771 z "},"̊":{"ha":0,"x_min":0,"x_max":0,"o":"m -149 750 b 17 920 -57 750 17 826 b -149 1087 17 1012 -57 1087 b -319 920 -243 1087 -319 1012 b -149 750 -319 826 -243 750 z m -149 840 b -226 920 -194 840 -226 872 b -149 1000 -226 962 -194 1000 b -71 920 -106 1000 -71 962 b -149 840 -71 872 -106 840 z "},"̃":{"ha":0,"x_min":0,"x_max":0,"o":"m -193 821 b -24 1042 -80 821 -24 917 l -156 1042 b -196 948 -156 984 -165 948 b -226 970 -210 948 -219 957 b -370 1052 -257 1014 -304 1052 b -536 830 -474 1052 -536 960 l -405 830 b -365 924 -405 884 -394 924 b -333 903 -352 924 -344 918 b -193 821 -295 847 -250 821 z "},"̄":{"ha":0,"x_min":0,"x_max":0,"o":"m -465 806 l -47 806 l -47 944 l -465 944 z "},"̒":{"ha":0,"x_min":0,"x_max":0,"o":"m -101 1104 l -283 840 l -92 840 l 5 1104 z "},"̣":{"ha":0,"x_min":0,"x_max":0,"o":"m -163 -347 b -40 -226 -95 -347 -40 -292 b -163 -102 -40 -158 -95 -102 b -285 -226 -229 -102 -285 -158 b -163 -347 -285 -292 -229 -347 z "},"̦":{"ha":0,"x_min":0,"x_max":0,"o":"m -238 -139 l -56 125 l -247 125 l -344 -139 z "},"̧":{"ha":0,"x_min":0,"x_max":0,"o":"m -194 -361 b -40 -207 -108 -361 -40 -293 b -200 -80 -40 -122 -111 -64 l -153 0 l -255 0 l -326 -128 l -248 -174 b -141 -207 -189 -142 -141 -158 b -194 -260 -141 -236 -165 -260 b -260 -222 -219 -260 -248 -243 l -358 -253 b -194 -361 -337 -312 -266 -361 z "},"̨":{"ha":0,"x_min":0,"x_max":0,"o":"m -196 -359 b 24 -274 -116 -365 -33 -333 l -45 -177 b -160 -252 -71 -224 -115 -252 b -236 -165 -207 -252 -236 -222 b -57 0 -236 -85 -163 -50 l -158 31 b -372 -184 -271 -10 -372 -73 b -196 -359 -372 -276 -309 -351 z "},"̵":{"ha":0,"x_min":0,"x_max":0,"o":"m -720 288 l -234 288 l -234 406 l -720 406 z "},"̶":{"ha":0,"x_min":0,"x_max":0,"o":"m -1082 316 l -42 316 l -42 406 l -1082 406 z "},"̷":{"ha":0,"x_min":0,"x_max":0,"o":"m -733 153 l -649 78 l -196 554 l -281 627 z "},"̸":{"ha":0,"x_min":0,"x_max":0,"o":"m -913 -3 l -778 -83 l 9 1045 l -127 1127 z "},"´":{"ha":134,"x_min":0,"x_max":0,"o":"m 52 783 l 198 783 l 415 1042 l 205 1042 z "},"˘":{"ha":102,"x_min":0,"x_max":0,"o":"m 424 771 b 677 1016 575 771 677 851 l 552 1016 b 424 896 552 955 503 896 b 295 1016 345 896 295 955 l 170 1016 b 424 771 170 851 274 771 z "},"ˇ":{"ha":155,"x_min":0,"x_max":0,"o":"m 245 783 l 378 783 l 550 1042 l 411 1042 l 313 906 l 214 1042 l 75 1042 z "},"¸":{"ha":80,"x_min":0,"x_max":0,"o":"m 203 -361 b 358 -207 290 -361 358 -293 b 198 -80 358 -122 286 -64 l 245 0 l 142 0 l 71 -128 l 149 -174 b 257 -207 208 -142 257 -158 b 203 -260 257 -236 233 -260 b 137 -222 179 -260 149 -243 l 40 -253 b 203 -361 61 -312 132 -361 z "},"ˆ":{"ha":155,"x_min":0,"x_max":0,"o":"m 214 783 l 313 918 l 411 783 l 550 783 l 378 1042 l 245 1042 l 75 783 z "},"¨":{"ha":174,"x_min":0,"x_max":0,"o":"m 189 816 b 295 920 247 816 295 865 b 189 1024 295 979 247 1024 b 85 920 134 1024 85 979 b 189 816 85 865 134 816 z m 481 816 b 585 920 540 816 585 865 b 481 1024 585 979 540 1024 b 377 920 425 1024 377 979 b 481 816 377 865 425 816 z "},"˙":{"ha":132,"x_min":0,"x_max":0,"o":"m 245 783 b 368 905 313 783 368 839 b 245 1026 368 972 313 1026 b 123 905 179 1026 123 972 b 245 783 123 839 179 783 z "},"`":{"ha":134,"x_min":0,"x_max":0,"o":"m 385 783 l 233 1042 l 23 1042 l 240 783 z "},"˝":{"ha":134,"x_min":0,"x_max":0,"o":"m 52 783 l 198 783 l 415 1042 l 205 1042 z "},"¯":{"ha":82,"x_min":0,"x_max":0,"o":"m 47 806 l 465 806 l 465 944 l 47 944 z "},"˛":{"ha":122,"x_min":0,"x_max":0,"o":"m 280 -359 b 500 -274 359 -365 443 -333 l 431 -177 b 316 -252 405 -224 361 -252 b 240 -165 269 -252 240 -222 b 418 0 240 -85 313 -50 l 318 31 b 104 -184 205 -10 104 -73 b 280 -359 104 -276 167 -351 z "},"˚":{"ha":109,"x_min":0,"x_max":0,"o":"m 153 750 b 319 920 245 750 319 826 b 153 1087 319 1012 245 1087 b -17 920 59 1087 -17 1012 b 153 750 -17 826 59 750 z m 153 840 b 76 920 108 840 76 872 b 153 1000 76 962 108 1000 b 231 920 196 1000 231 962 b 153 840 231 872 196 840 z "},"˜":{"ha":83,"x_min":0,"x_max":0,"o":"m 365 821 b 533 1042 477 821 533 917 l 401 1042 b 361 948 401 984 392 948 b 332 970 347 948 339 957 b 188 1052 300 1014 253 1052 b 21 830 83 1052 21 960 l 153 830 b 193 924 153 884 163 924 b 224 903 205 924 214 918 b 365 821 262 847 307 821 z "}}}
